%TF.GenerationSoftware,KiCad,Pcbnew,8.0.4+dfsg-1*%
%TF.CreationDate,2024-12-18T14:37:18+00:00*%
%TF.ProjectId,single-sided-radio-interface,73696e67-6c65-42d7-9369-6465642d7261,rev?*%
%TF.SameCoordinates,Original*%
%TF.FileFunction,Legend,Top*%
%TF.FilePolarity,Positive*%
%FSLAX46Y46*%
G04 Gerber Fmt 4.6, Leading zero omitted, Abs format (unit mm)*
G04 Created by KiCad (PCBNEW 8.0.4+dfsg-1) date 2024-12-18 14:37:18*
%MOMM*%
%LPD*%
G01*
G04 APERTURE LIST*
%ADD10C,0.150000*%
%ADD11C,0.120000*%
G04 APERTURE END LIST*
D10*
X84273809Y-66978628D02*
X84273809Y-67454819D01*
X83940476Y-66454819D02*
X84273809Y-66978628D01*
X84273809Y-66978628D02*
X84607142Y-66454819D01*
X85464285Y-67454819D02*
X84892857Y-67454819D01*
X85178571Y-67454819D02*
X85178571Y-66454819D01*
X85178571Y-66454819D02*
X85083333Y-66597676D01*
X85083333Y-66597676D02*
X84988095Y-66692914D01*
X84988095Y-66692914D02*
X84892857Y-66740533D01*
X109583333Y-59859580D02*
X109535714Y-59907200D01*
X109535714Y-59907200D02*
X109392857Y-59954819D01*
X109392857Y-59954819D02*
X109297619Y-59954819D01*
X109297619Y-59954819D02*
X109154762Y-59907200D01*
X109154762Y-59907200D02*
X109059524Y-59811961D01*
X109059524Y-59811961D02*
X109011905Y-59716723D01*
X109011905Y-59716723D02*
X108964286Y-59526247D01*
X108964286Y-59526247D02*
X108964286Y-59383390D01*
X108964286Y-59383390D02*
X109011905Y-59192914D01*
X109011905Y-59192914D02*
X109059524Y-59097676D01*
X109059524Y-59097676D02*
X109154762Y-59002438D01*
X109154762Y-59002438D02*
X109297619Y-58954819D01*
X109297619Y-58954819D02*
X109392857Y-58954819D01*
X109392857Y-58954819D02*
X109535714Y-59002438D01*
X109535714Y-59002438D02*
X109583333Y-59050057D01*
X110488095Y-58954819D02*
X110011905Y-58954819D01*
X110011905Y-58954819D02*
X109964286Y-59431009D01*
X109964286Y-59431009D02*
X110011905Y-59383390D01*
X110011905Y-59383390D02*
X110107143Y-59335771D01*
X110107143Y-59335771D02*
X110345238Y-59335771D01*
X110345238Y-59335771D02*
X110440476Y-59383390D01*
X110440476Y-59383390D02*
X110488095Y-59431009D01*
X110488095Y-59431009D02*
X110535714Y-59526247D01*
X110535714Y-59526247D02*
X110535714Y-59764342D01*
X110535714Y-59764342D02*
X110488095Y-59859580D01*
X110488095Y-59859580D02*
X110440476Y-59907200D01*
X110440476Y-59907200D02*
X110345238Y-59954819D01*
X110345238Y-59954819D02*
X110107143Y-59954819D01*
X110107143Y-59954819D02*
X110011905Y-59907200D01*
X110011905Y-59907200D02*
X109964286Y-59859580D01*
X80654761Y-58800057D02*
X80559523Y-58752438D01*
X80559523Y-58752438D02*
X80464285Y-58657200D01*
X80464285Y-58657200D02*
X80321428Y-58514342D01*
X80321428Y-58514342D02*
X80226190Y-58466723D01*
X80226190Y-58466723D02*
X80130952Y-58466723D01*
X80178571Y-58704819D02*
X80083333Y-58657200D01*
X80083333Y-58657200D02*
X79988095Y-58561961D01*
X79988095Y-58561961D02*
X79940476Y-58371485D01*
X79940476Y-58371485D02*
X79940476Y-58038152D01*
X79940476Y-58038152D02*
X79988095Y-57847676D01*
X79988095Y-57847676D02*
X80083333Y-57752438D01*
X80083333Y-57752438D02*
X80178571Y-57704819D01*
X80178571Y-57704819D02*
X80369047Y-57704819D01*
X80369047Y-57704819D02*
X80464285Y-57752438D01*
X80464285Y-57752438D02*
X80559523Y-57847676D01*
X80559523Y-57847676D02*
X80607142Y-58038152D01*
X80607142Y-58038152D02*
X80607142Y-58371485D01*
X80607142Y-58371485D02*
X80559523Y-58561961D01*
X80559523Y-58561961D02*
X80464285Y-58657200D01*
X80464285Y-58657200D02*
X80369047Y-58704819D01*
X80369047Y-58704819D02*
X80178571Y-58704819D01*
X81559523Y-58704819D02*
X80988095Y-58704819D01*
X81273809Y-58704819D02*
X81273809Y-57704819D01*
X81273809Y-57704819D02*
X81178571Y-57847676D01*
X81178571Y-57847676D02*
X81083333Y-57942914D01*
X81083333Y-57942914D02*
X80988095Y-57990533D01*
X98083333Y-74954819D02*
X97607143Y-74954819D01*
X97607143Y-74954819D02*
X97607143Y-73954819D01*
X98940476Y-74954819D02*
X98369048Y-74954819D01*
X98654762Y-74954819D02*
X98654762Y-73954819D01*
X98654762Y-73954819D02*
X98559524Y-74097676D01*
X98559524Y-74097676D02*
X98464286Y-74192914D01*
X98464286Y-74192914D02*
X98369048Y-74240533D01*
X78416666Y-62954819D02*
X78416666Y-63669104D01*
X78416666Y-63669104D02*
X78369047Y-63811961D01*
X78369047Y-63811961D02*
X78273809Y-63907200D01*
X78273809Y-63907200D02*
X78130952Y-63954819D01*
X78130952Y-63954819D02*
X78035714Y-63954819D01*
X79321428Y-62954819D02*
X79130952Y-62954819D01*
X79130952Y-62954819D02*
X79035714Y-63002438D01*
X79035714Y-63002438D02*
X78988095Y-63050057D01*
X78988095Y-63050057D02*
X78892857Y-63192914D01*
X78892857Y-63192914D02*
X78845238Y-63383390D01*
X78845238Y-63383390D02*
X78845238Y-63764342D01*
X78845238Y-63764342D02*
X78892857Y-63859580D01*
X78892857Y-63859580D02*
X78940476Y-63907200D01*
X78940476Y-63907200D02*
X79035714Y-63954819D01*
X79035714Y-63954819D02*
X79226190Y-63954819D01*
X79226190Y-63954819D02*
X79321428Y-63907200D01*
X79321428Y-63907200D02*
X79369047Y-63859580D01*
X79369047Y-63859580D02*
X79416666Y-63764342D01*
X79416666Y-63764342D02*
X79416666Y-63526247D01*
X79416666Y-63526247D02*
X79369047Y-63431009D01*
X79369047Y-63431009D02*
X79321428Y-63383390D01*
X79321428Y-63383390D02*
X79226190Y-63335771D01*
X79226190Y-63335771D02*
X79035714Y-63335771D01*
X79035714Y-63335771D02*
X78940476Y-63383390D01*
X78940476Y-63383390D02*
X78892857Y-63431009D01*
X78892857Y-63431009D02*
X78845238Y-63526247D01*
X106083333Y-62609580D02*
X106035714Y-62657200D01*
X106035714Y-62657200D02*
X105892857Y-62704819D01*
X105892857Y-62704819D02*
X105797619Y-62704819D01*
X105797619Y-62704819D02*
X105654762Y-62657200D01*
X105654762Y-62657200D02*
X105559524Y-62561961D01*
X105559524Y-62561961D02*
X105511905Y-62466723D01*
X105511905Y-62466723D02*
X105464286Y-62276247D01*
X105464286Y-62276247D02*
X105464286Y-62133390D01*
X105464286Y-62133390D02*
X105511905Y-61942914D01*
X105511905Y-61942914D02*
X105559524Y-61847676D01*
X105559524Y-61847676D02*
X105654762Y-61752438D01*
X105654762Y-61752438D02*
X105797619Y-61704819D01*
X105797619Y-61704819D02*
X105892857Y-61704819D01*
X105892857Y-61704819D02*
X106035714Y-61752438D01*
X106035714Y-61752438D02*
X106083333Y-61800057D01*
X106416667Y-61704819D02*
X107035714Y-61704819D01*
X107035714Y-61704819D02*
X106702381Y-62085771D01*
X106702381Y-62085771D02*
X106845238Y-62085771D01*
X106845238Y-62085771D02*
X106940476Y-62133390D01*
X106940476Y-62133390D02*
X106988095Y-62181009D01*
X106988095Y-62181009D02*
X107035714Y-62276247D01*
X107035714Y-62276247D02*
X107035714Y-62514342D01*
X107035714Y-62514342D02*
X106988095Y-62609580D01*
X106988095Y-62609580D02*
X106940476Y-62657200D01*
X106940476Y-62657200D02*
X106845238Y-62704819D01*
X106845238Y-62704819D02*
X106559524Y-62704819D01*
X106559524Y-62704819D02*
X106464286Y-62657200D01*
X106464286Y-62657200D02*
X106416667Y-62609580D01*
X88583333Y-71359580D02*
X88535714Y-71407200D01*
X88535714Y-71407200D02*
X88392857Y-71454819D01*
X88392857Y-71454819D02*
X88297619Y-71454819D01*
X88297619Y-71454819D02*
X88154762Y-71407200D01*
X88154762Y-71407200D02*
X88059524Y-71311961D01*
X88059524Y-71311961D02*
X88011905Y-71216723D01*
X88011905Y-71216723D02*
X87964286Y-71026247D01*
X87964286Y-71026247D02*
X87964286Y-70883390D01*
X87964286Y-70883390D02*
X88011905Y-70692914D01*
X88011905Y-70692914D02*
X88059524Y-70597676D01*
X88059524Y-70597676D02*
X88154762Y-70502438D01*
X88154762Y-70502438D02*
X88297619Y-70454819D01*
X88297619Y-70454819D02*
X88392857Y-70454819D01*
X88392857Y-70454819D02*
X88535714Y-70502438D01*
X88535714Y-70502438D02*
X88583333Y-70550057D01*
X89059524Y-71454819D02*
X89250000Y-71454819D01*
X89250000Y-71454819D02*
X89345238Y-71407200D01*
X89345238Y-71407200D02*
X89392857Y-71359580D01*
X89392857Y-71359580D02*
X89488095Y-71216723D01*
X89488095Y-71216723D02*
X89535714Y-71026247D01*
X89535714Y-71026247D02*
X89535714Y-70645295D01*
X89535714Y-70645295D02*
X89488095Y-70550057D01*
X89488095Y-70550057D02*
X89440476Y-70502438D01*
X89440476Y-70502438D02*
X89345238Y-70454819D01*
X89345238Y-70454819D02*
X89154762Y-70454819D01*
X89154762Y-70454819D02*
X89059524Y-70502438D01*
X89059524Y-70502438D02*
X89011905Y-70550057D01*
X89011905Y-70550057D02*
X88964286Y-70645295D01*
X88964286Y-70645295D02*
X88964286Y-70883390D01*
X88964286Y-70883390D02*
X89011905Y-70978628D01*
X89011905Y-70978628D02*
X89059524Y-71026247D01*
X89059524Y-71026247D02*
X89154762Y-71073866D01*
X89154762Y-71073866D02*
X89345238Y-71073866D01*
X89345238Y-71073866D02*
X89440476Y-71026247D01*
X89440476Y-71026247D02*
X89488095Y-70978628D01*
X89488095Y-70978628D02*
X89535714Y-70883390D01*
X78416666Y-70704819D02*
X78416666Y-71419104D01*
X78416666Y-71419104D02*
X78369047Y-71561961D01*
X78369047Y-71561961D02*
X78273809Y-71657200D01*
X78273809Y-71657200D02*
X78130952Y-71704819D01*
X78130952Y-71704819D02*
X78035714Y-71704819D01*
X79035714Y-71133390D02*
X78940476Y-71085771D01*
X78940476Y-71085771D02*
X78892857Y-71038152D01*
X78892857Y-71038152D02*
X78845238Y-70942914D01*
X78845238Y-70942914D02*
X78845238Y-70895295D01*
X78845238Y-70895295D02*
X78892857Y-70800057D01*
X78892857Y-70800057D02*
X78940476Y-70752438D01*
X78940476Y-70752438D02*
X79035714Y-70704819D01*
X79035714Y-70704819D02*
X79226190Y-70704819D01*
X79226190Y-70704819D02*
X79321428Y-70752438D01*
X79321428Y-70752438D02*
X79369047Y-70800057D01*
X79369047Y-70800057D02*
X79416666Y-70895295D01*
X79416666Y-70895295D02*
X79416666Y-70942914D01*
X79416666Y-70942914D02*
X79369047Y-71038152D01*
X79369047Y-71038152D02*
X79321428Y-71085771D01*
X79321428Y-71085771D02*
X79226190Y-71133390D01*
X79226190Y-71133390D02*
X79035714Y-71133390D01*
X79035714Y-71133390D02*
X78940476Y-71181009D01*
X78940476Y-71181009D02*
X78892857Y-71228628D01*
X78892857Y-71228628D02*
X78845238Y-71323866D01*
X78845238Y-71323866D02*
X78845238Y-71514342D01*
X78845238Y-71514342D02*
X78892857Y-71609580D01*
X78892857Y-71609580D02*
X78940476Y-71657200D01*
X78940476Y-71657200D02*
X79035714Y-71704819D01*
X79035714Y-71704819D02*
X79226190Y-71704819D01*
X79226190Y-71704819D02*
X79321428Y-71657200D01*
X79321428Y-71657200D02*
X79369047Y-71609580D01*
X79369047Y-71609580D02*
X79416666Y-71514342D01*
X79416666Y-71514342D02*
X79416666Y-71323866D01*
X79416666Y-71323866D02*
X79369047Y-71228628D01*
X79369047Y-71228628D02*
X79321428Y-71181009D01*
X79321428Y-71181009D02*
X79226190Y-71133390D01*
X105833333Y-71204819D02*
X105500000Y-70728628D01*
X105261905Y-71204819D02*
X105261905Y-70204819D01*
X105261905Y-70204819D02*
X105642857Y-70204819D01*
X105642857Y-70204819D02*
X105738095Y-70252438D01*
X105738095Y-70252438D02*
X105785714Y-70300057D01*
X105785714Y-70300057D02*
X105833333Y-70395295D01*
X105833333Y-70395295D02*
X105833333Y-70538152D01*
X105833333Y-70538152D02*
X105785714Y-70633390D01*
X105785714Y-70633390D02*
X105738095Y-70681009D01*
X105738095Y-70681009D02*
X105642857Y-70728628D01*
X105642857Y-70728628D02*
X105261905Y-70728628D01*
X106785714Y-71204819D02*
X106214286Y-71204819D01*
X106500000Y-71204819D02*
X106500000Y-70204819D01*
X106500000Y-70204819D02*
X106404762Y-70347676D01*
X106404762Y-70347676D02*
X106309524Y-70442914D01*
X106309524Y-70442914D02*
X106214286Y-70490533D01*
X101304819Y-63761904D02*
X102114342Y-63761904D01*
X102114342Y-63761904D02*
X102209580Y-63714285D01*
X102209580Y-63714285D02*
X102257200Y-63666666D01*
X102257200Y-63666666D02*
X102304819Y-63571428D01*
X102304819Y-63571428D02*
X102304819Y-63380952D01*
X102304819Y-63380952D02*
X102257200Y-63285714D01*
X102257200Y-63285714D02*
X102209580Y-63238095D01*
X102209580Y-63238095D02*
X102114342Y-63190476D01*
X102114342Y-63190476D02*
X101304819Y-63190476D01*
X102304819Y-62190476D02*
X102304819Y-62761904D01*
X102304819Y-62476190D02*
X101304819Y-62476190D01*
X101304819Y-62476190D02*
X101447676Y-62571428D01*
X101447676Y-62571428D02*
X101542914Y-62666666D01*
X101542914Y-62666666D02*
X101590533Y-62761904D01*
X81261905Y-70954819D02*
X81261905Y-69954819D01*
X81261905Y-69954819D02*
X81500000Y-69954819D01*
X81500000Y-69954819D02*
X81642857Y-70002438D01*
X81642857Y-70002438D02*
X81738095Y-70097676D01*
X81738095Y-70097676D02*
X81785714Y-70192914D01*
X81785714Y-70192914D02*
X81833333Y-70383390D01*
X81833333Y-70383390D02*
X81833333Y-70526247D01*
X81833333Y-70526247D02*
X81785714Y-70716723D01*
X81785714Y-70716723D02*
X81738095Y-70811961D01*
X81738095Y-70811961D02*
X81642857Y-70907200D01*
X81642857Y-70907200D02*
X81500000Y-70954819D01*
X81500000Y-70954819D02*
X81261905Y-70954819D01*
X82785714Y-70954819D02*
X82214286Y-70954819D01*
X82500000Y-70954819D02*
X82500000Y-69954819D01*
X82500000Y-69954819D02*
X82404762Y-70097676D01*
X82404762Y-70097676D02*
X82309524Y-70192914D01*
X82309524Y-70192914D02*
X82214286Y-70240533D01*
X106083333Y-59929580D02*
X106035714Y-59977200D01*
X106035714Y-59977200D02*
X105892857Y-60024819D01*
X105892857Y-60024819D02*
X105797619Y-60024819D01*
X105797619Y-60024819D02*
X105654762Y-59977200D01*
X105654762Y-59977200D02*
X105559524Y-59881961D01*
X105559524Y-59881961D02*
X105511905Y-59786723D01*
X105511905Y-59786723D02*
X105464286Y-59596247D01*
X105464286Y-59596247D02*
X105464286Y-59453390D01*
X105464286Y-59453390D02*
X105511905Y-59262914D01*
X105511905Y-59262914D02*
X105559524Y-59167676D01*
X105559524Y-59167676D02*
X105654762Y-59072438D01*
X105654762Y-59072438D02*
X105797619Y-59024819D01*
X105797619Y-59024819D02*
X105892857Y-59024819D01*
X105892857Y-59024819D02*
X106035714Y-59072438D01*
X106035714Y-59072438D02*
X106083333Y-59120057D01*
X106940476Y-59358152D02*
X106940476Y-60024819D01*
X106702381Y-58977200D02*
X106464286Y-59691485D01*
X106464286Y-59691485D02*
X107083333Y-59691485D01*
X78416666Y-57454819D02*
X78416666Y-58169104D01*
X78416666Y-58169104D02*
X78369047Y-58311961D01*
X78369047Y-58311961D02*
X78273809Y-58407200D01*
X78273809Y-58407200D02*
X78130952Y-58454819D01*
X78130952Y-58454819D02*
X78035714Y-58454819D01*
X79369047Y-57454819D02*
X78892857Y-57454819D01*
X78892857Y-57454819D02*
X78845238Y-57931009D01*
X78845238Y-57931009D02*
X78892857Y-57883390D01*
X78892857Y-57883390D02*
X78988095Y-57835771D01*
X78988095Y-57835771D02*
X79226190Y-57835771D01*
X79226190Y-57835771D02*
X79321428Y-57883390D01*
X79321428Y-57883390D02*
X79369047Y-57931009D01*
X79369047Y-57931009D02*
X79416666Y-58026247D01*
X79416666Y-58026247D02*
X79416666Y-58264342D01*
X79416666Y-58264342D02*
X79369047Y-58359580D01*
X79369047Y-58359580D02*
X79321428Y-58407200D01*
X79321428Y-58407200D02*
X79226190Y-58454819D01*
X79226190Y-58454819D02*
X78988095Y-58454819D01*
X78988095Y-58454819D02*
X78892857Y-58407200D01*
X78892857Y-58407200D02*
X78845238Y-58359580D01*
X85583333Y-60109580D02*
X85535714Y-60157200D01*
X85535714Y-60157200D02*
X85392857Y-60204819D01*
X85392857Y-60204819D02*
X85297619Y-60204819D01*
X85297619Y-60204819D02*
X85154762Y-60157200D01*
X85154762Y-60157200D02*
X85059524Y-60061961D01*
X85059524Y-60061961D02*
X85011905Y-59966723D01*
X85011905Y-59966723D02*
X84964286Y-59776247D01*
X84964286Y-59776247D02*
X84964286Y-59633390D01*
X84964286Y-59633390D02*
X85011905Y-59442914D01*
X85011905Y-59442914D02*
X85059524Y-59347676D01*
X85059524Y-59347676D02*
X85154762Y-59252438D01*
X85154762Y-59252438D02*
X85297619Y-59204819D01*
X85297619Y-59204819D02*
X85392857Y-59204819D01*
X85392857Y-59204819D02*
X85535714Y-59252438D01*
X85535714Y-59252438D02*
X85583333Y-59300057D01*
X85964286Y-59300057D02*
X86011905Y-59252438D01*
X86011905Y-59252438D02*
X86107143Y-59204819D01*
X86107143Y-59204819D02*
X86345238Y-59204819D01*
X86345238Y-59204819D02*
X86440476Y-59252438D01*
X86440476Y-59252438D02*
X86488095Y-59300057D01*
X86488095Y-59300057D02*
X86535714Y-59395295D01*
X86535714Y-59395295D02*
X86535714Y-59490533D01*
X86535714Y-59490533D02*
X86488095Y-59633390D01*
X86488095Y-59633390D02*
X85916667Y-60204819D01*
X85916667Y-60204819D02*
X86535714Y-60204819D01*
X109583333Y-62859580D02*
X109535714Y-62907200D01*
X109535714Y-62907200D02*
X109392857Y-62954819D01*
X109392857Y-62954819D02*
X109297619Y-62954819D01*
X109297619Y-62954819D02*
X109154762Y-62907200D01*
X109154762Y-62907200D02*
X109059524Y-62811961D01*
X109059524Y-62811961D02*
X109011905Y-62716723D01*
X109011905Y-62716723D02*
X108964286Y-62526247D01*
X108964286Y-62526247D02*
X108964286Y-62383390D01*
X108964286Y-62383390D02*
X109011905Y-62192914D01*
X109011905Y-62192914D02*
X109059524Y-62097676D01*
X109059524Y-62097676D02*
X109154762Y-62002438D01*
X109154762Y-62002438D02*
X109297619Y-61954819D01*
X109297619Y-61954819D02*
X109392857Y-61954819D01*
X109392857Y-61954819D02*
X109535714Y-62002438D01*
X109535714Y-62002438D02*
X109583333Y-62050057D01*
X110440476Y-61954819D02*
X110250000Y-61954819D01*
X110250000Y-61954819D02*
X110154762Y-62002438D01*
X110154762Y-62002438D02*
X110107143Y-62050057D01*
X110107143Y-62050057D02*
X110011905Y-62192914D01*
X110011905Y-62192914D02*
X109964286Y-62383390D01*
X109964286Y-62383390D02*
X109964286Y-62764342D01*
X109964286Y-62764342D02*
X110011905Y-62859580D01*
X110011905Y-62859580D02*
X110059524Y-62907200D01*
X110059524Y-62907200D02*
X110154762Y-62954819D01*
X110154762Y-62954819D02*
X110345238Y-62954819D01*
X110345238Y-62954819D02*
X110440476Y-62907200D01*
X110440476Y-62907200D02*
X110488095Y-62859580D01*
X110488095Y-62859580D02*
X110535714Y-62764342D01*
X110535714Y-62764342D02*
X110535714Y-62526247D01*
X110535714Y-62526247D02*
X110488095Y-62431009D01*
X110488095Y-62431009D02*
X110440476Y-62383390D01*
X110440476Y-62383390D02*
X110345238Y-62335771D01*
X110345238Y-62335771D02*
X110154762Y-62335771D01*
X110154762Y-62335771D02*
X110059524Y-62383390D01*
X110059524Y-62383390D02*
X110011905Y-62431009D01*
X110011905Y-62431009D02*
X109964286Y-62526247D01*
X104083333Y-66454819D02*
X103750000Y-65978628D01*
X103511905Y-66454819D02*
X103511905Y-65454819D01*
X103511905Y-65454819D02*
X103892857Y-65454819D01*
X103892857Y-65454819D02*
X103988095Y-65502438D01*
X103988095Y-65502438D02*
X104035714Y-65550057D01*
X104035714Y-65550057D02*
X104083333Y-65645295D01*
X104083333Y-65645295D02*
X104083333Y-65788152D01*
X104083333Y-65788152D02*
X104035714Y-65883390D01*
X104035714Y-65883390D02*
X103988095Y-65931009D01*
X103988095Y-65931009D02*
X103892857Y-65978628D01*
X103892857Y-65978628D02*
X103511905Y-65978628D01*
X104416667Y-65454819D02*
X105035714Y-65454819D01*
X105035714Y-65454819D02*
X104702381Y-65835771D01*
X104702381Y-65835771D02*
X104845238Y-65835771D01*
X104845238Y-65835771D02*
X104940476Y-65883390D01*
X104940476Y-65883390D02*
X104988095Y-65931009D01*
X104988095Y-65931009D02*
X105035714Y-66026247D01*
X105035714Y-66026247D02*
X105035714Y-66264342D01*
X105035714Y-66264342D02*
X104988095Y-66359580D01*
X104988095Y-66359580D02*
X104940476Y-66407200D01*
X104940476Y-66407200D02*
X104845238Y-66454819D01*
X104845238Y-66454819D02*
X104559524Y-66454819D01*
X104559524Y-66454819D02*
X104464286Y-66407200D01*
X104464286Y-66407200D02*
X104416667Y-66359580D01*
X81333333Y-67039580D02*
X81285714Y-67087200D01*
X81285714Y-67087200D02*
X81142857Y-67134819D01*
X81142857Y-67134819D02*
X81047619Y-67134819D01*
X81047619Y-67134819D02*
X80904762Y-67087200D01*
X80904762Y-67087200D02*
X80809524Y-66991961D01*
X80809524Y-66991961D02*
X80761905Y-66896723D01*
X80761905Y-66896723D02*
X80714286Y-66706247D01*
X80714286Y-66706247D02*
X80714286Y-66563390D01*
X80714286Y-66563390D02*
X80761905Y-66372914D01*
X80761905Y-66372914D02*
X80809524Y-66277676D01*
X80809524Y-66277676D02*
X80904762Y-66182438D01*
X80904762Y-66182438D02*
X81047619Y-66134819D01*
X81047619Y-66134819D02*
X81142857Y-66134819D01*
X81142857Y-66134819D02*
X81285714Y-66182438D01*
X81285714Y-66182438D02*
X81333333Y-66230057D01*
X82285714Y-67134819D02*
X81714286Y-67134819D01*
X82000000Y-67134819D02*
X82000000Y-66134819D01*
X82000000Y-66134819D02*
X81904762Y-66277676D01*
X81904762Y-66277676D02*
X81809524Y-66372914D01*
X81809524Y-66372914D02*
X81714286Y-66420533D01*
X105704819Y-68059523D02*
X106419104Y-68059523D01*
X106419104Y-68059523D02*
X106561961Y-68107142D01*
X106561961Y-68107142D02*
X106657200Y-68202380D01*
X106657200Y-68202380D02*
X106704819Y-68345237D01*
X106704819Y-68345237D02*
X106704819Y-68440475D01*
X106704819Y-67059523D02*
X106704819Y-67630951D01*
X106704819Y-67345237D02*
X105704819Y-67345237D01*
X105704819Y-67345237D02*
X105847676Y-67440475D01*
X105847676Y-67440475D02*
X105942914Y-67535713D01*
X105942914Y-67535713D02*
X105990533Y-67630951D01*
X105704819Y-66440475D02*
X105704819Y-66345237D01*
X105704819Y-66345237D02*
X105752438Y-66249999D01*
X105752438Y-66249999D02*
X105800057Y-66202380D01*
X105800057Y-66202380D02*
X105895295Y-66154761D01*
X105895295Y-66154761D02*
X106085771Y-66107142D01*
X106085771Y-66107142D02*
X106323866Y-66107142D01*
X106323866Y-66107142D02*
X106514342Y-66154761D01*
X106514342Y-66154761D02*
X106609580Y-66202380D01*
X106609580Y-66202380D02*
X106657200Y-66249999D01*
X106657200Y-66249999D02*
X106704819Y-66345237D01*
X106704819Y-66345237D02*
X106704819Y-66440475D01*
X106704819Y-66440475D02*
X106657200Y-66535713D01*
X106657200Y-66535713D02*
X106609580Y-66583332D01*
X106609580Y-66583332D02*
X106514342Y-66630951D01*
X106514342Y-66630951D02*
X106323866Y-66678570D01*
X106323866Y-66678570D02*
X106085771Y-66678570D01*
X106085771Y-66678570D02*
X105895295Y-66630951D01*
X105895295Y-66630951D02*
X105800057Y-66583332D01*
X105800057Y-66583332D02*
X105752438Y-66535713D01*
X105752438Y-66535713D02*
X105704819Y-66440475D01*
X78416666Y-66954819D02*
X78416666Y-67669104D01*
X78416666Y-67669104D02*
X78369047Y-67811961D01*
X78369047Y-67811961D02*
X78273809Y-67907200D01*
X78273809Y-67907200D02*
X78130952Y-67954819D01*
X78130952Y-67954819D02*
X78035714Y-67954819D01*
X78797619Y-66954819D02*
X79464285Y-66954819D01*
X79464285Y-66954819D02*
X79035714Y-67954819D01*
X91583333Y-68679580D02*
X91535714Y-68727200D01*
X91535714Y-68727200D02*
X91392857Y-68774819D01*
X91392857Y-68774819D02*
X91297619Y-68774819D01*
X91297619Y-68774819D02*
X91154762Y-68727200D01*
X91154762Y-68727200D02*
X91059524Y-68631961D01*
X91059524Y-68631961D02*
X91011905Y-68536723D01*
X91011905Y-68536723D02*
X90964286Y-68346247D01*
X90964286Y-68346247D02*
X90964286Y-68203390D01*
X90964286Y-68203390D02*
X91011905Y-68012914D01*
X91011905Y-68012914D02*
X91059524Y-67917676D01*
X91059524Y-67917676D02*
X91154762Y-67822438D01*
X91154762Y-67822438D02*
X91297619Y-67774819D01*
X91297619Y-67774819D02*
X91392857Y-67774819D01*
X91392857Y-67774819D02*
X91535714Y-67822438D01*
X91535714Y-67822438D02*
X91583333Y-67870057D01*
X92154762Y-68203390D02*
X92059524Y-68155771D01*
X92059524Y-68155771D02*
X92011905Y-68108152D01*
X92011905Y-68108152D02*
X91964286Y-68012914D01*
X91964286Y-68012914D02*
X91964286Y-67965295D01*
X91964286Y-67965295D02*
X92011905Y-67870057D01*
X92011905Y-67870057D02*
X92059524Y-67822438D01*
X92059524Y-67822438D02*
X92154762Y-67774819D01*
X92154762Y-67774819D02*
X92345238Y-67774819D01*
X92345238Y-67774819D02*
X92440476Y-67822438D01*
X92440476Y-67822438D02*
X92488095Y-67870057D01*
X92488095Y-67870057D02*
X92535714Y-67965295D01*
X92535714Y-67965295D02*
X92535714Y-68012914D01*
X92535714Y-68012914D02*
X92488095Y-68108152D01*
X92488095Y-68108152D02*
X92440476Y-68155771D01*
X92440476Y-68155771D02*
X92345238Y-68203390D01*
X92345238Y-68203390D02*
X92154762Y-68203390D01*
X92154762Y-68203390D02*
X92059524Y-68251009D01*
X92059524Y-68251009D02*
X92011905Y-68298628D01*
X92011905Y-68298628D02*
X91964286Y-68393866D01*
X91964286Y-68393866D02*
X91964286Y-68584342D01*
X91964286Y-68584342D02*
X92011905Y-68679580D01*
X92011905Y-68679580D02*
X92059524Y-68727200D01*
X92059524Y-68727200D02*
X92154762Y-68774819D01*
X92154762Y-68774819D02*
X92345238Y-68774819D01*
X92345238Y-68774819D02*
X92440476Y-68727200D01*
X92440476Y-68727200D02*
X92488095Y-68679580D01*
X92488095Y-68679580D02*
X92535714Y-68584342D01*
X92535714Y-68584342D02*
X92535714Y-68393866D01*
X92535714Y-68393866D02*
X92488095Y-68298628D01*
X92488095Y-68298628D02*
X92440476Y-68251009D01*
X92440476Y-68251009D02*
X92345238Y-68203390D01*
X105833333Y-69704819D02*
X105500000Y-69228628D01*
X105261905Y-69704819D02*
X105261905Y-68704819D01*
X105261905Y-68704819D02*
X105642857Y-68704819D01*
X105642857Y-68704819D02*
X105738095Y-68752438D01*
X105738095Y-68752438D02*
X105785714Y-68800057D01*
X105785714Y-68800057D02*
X105833333Y-68895295D01*
X105833333Y-68895295D02*
X105833333Y-69038152D01*
X105833333Y-69038152D02*
X105785714Y-69133390D01*
X105785714Y-69133390D02*
X105738095Y-69181009D01*
X105738095Y-69181009D02*
X105642857Y-69228628D01*
X105642857Y-69228628D02*
X105261905Y-69228628D01*
X106214286Y-68800057D02*
X106261905Y-68752438D01*
X106261905Y-68752438D02*
X106357143Y-68704819D01*
X106357143Y-68704819D02*
X106595238Y-68704819D01*
X106595238Y-68704819D02*
X106690476Y-68752438D01*
X106690476Y-68752438D02*
X106738095Y-68800057D01*
X106738095Y-68800057D02*
X106785714Y-68895295D01*
X106785714Y-68895295D02*
X106785714Y-68990533D01*
X106785714Y-68990533D02*
X106738095Y-69133390D01*
X106738095Y-69133390D02*
X106166667Y-69704819D01*
X106166667Y-69704819D02*
X106785714Y-69704819D01*
X78416666Y-74204819D02*
X78416666Y-74919104D01*
X78416666Y-74919104D02*
X78369047Y-75061961D01*
X78369047Y-75061961D02*
X78273809Y-75157200D01*
X78273809Y-75157200D02*
X78130952Y-75204819D01*
X78130952Y-75204819D02*
X78035714Y-75204819D01*
X78940476Y-75204819D02*
X79130952Y-75204819D01*
X79130952Y-75204819D02*
X79226190Y-75157200D01*
X79226190Y-75157200D02*
X79273809Y-75109580D01*
X79273809Y-75109580D02*
X79369047Y-74966723D01*
X79369047Y-74966723D02*
X79416666Y-74776247D01*
X79416666Y-74776247D02*
X79416666Y-74395295D01*
X79416666Y-74395295D02*
X79369047Y-74300057D01*
X79369047Y-74300057D02*
X79321428Y-74252438D01*
X79321428Y-74252438D02*
X79226190Y-74204819D01*
X79226190Y-74204819D02*
X79035714Y-74204819D01*
X79035714Y-74204819D02*
X78940476Y-74252438D01*
X78940476Y-74252438D02*
X78892857Y-74300057D01*
X78892857Y-74300057D02*
X78845238Y-74395295D01*
X78845238Y-74395295D02*
X78845238Y-74633390D01*
X78845238Y-74633390D02*
X78892857Y-74728628D01*
X78892857Y-74728628D02*
X78940476Y-74776247D01*
X78940476Y-74776247D02*
X79035714Y-74823866D01*
X79035714Y-74823866D02*
X79226190Y-74823866D01*
X79226190Y-74823866D02*
X79321428Y-74776247D01*
X79321428Y-74776247D02*
X79369047Y-74728628D01*
X79369047Y-74728628D02*
X79416666Y-74633390D01*
X91083333Y-75609580D02*
X91035714Y-75657200D01*
X91035714Y-75657200D02*
X90892857Y-75704819D01*
X90892857Y-75704819D02*
X90797619Y-75704819D01*
X90797619Y-75704819D02*
X90654762Y-75657200D01*
X90654762Y-75657200D02*
X90559524Y-75561961D01*
X90559524Y-75561961D02*
X90511905Y-75466723D01*
X90511905Y-75466723D02*
X90464286Y-75276247D01*
X90464286Y-75276247D02*
X90464286Y-75133390D01*
X90464286Y-75133390D02*
X90511905Y-74942914D01*
X90511905Y-74942914D02*
X90559524Y-74847676D01*
X90559524Y-74847676D02*
X90654762Y-74752438D01*
X90654762Y-74752438D02*
X90797619Y-74704819D01*
X90797619Y-74704819D02*
X90892857Y-74704819D01*
X90892857Y-74704819D02*
X91035714Y-74752438D01*
X91035714Y-74752438D02*
X91083333Y-74800057D01*
X91416667Y-74704819D02*
X92083333Y-74704819D01*
X92083333Y-74704819D02*
X91654762Y-75704819D01*
D11*
%TO.C,Y1*%
X83750000Y-62850000D02*
X83750000Y-66150000D01*
X83750000Y-66150000D02*
X87750000Y-66150000D01*
%TO.C,C5*%
X109890580Y-60490000D02*
X109609420Y-60490000D01*
X109890580Y-61510000D02*
X109609420Y-61510000D01*
%TO.C,Q1*%
X80750000Y-59190000D02*
X80100000Y-59190000D01*
X80750000Y-59190000D02*
X81400000Y-59190000D01*
X80750000Y-62310000D02*
X80100000Y-62310000D01*
X80750000Y-62310000D02*
X81400000Y-62310000D01*
X82152500Y-62590000D02*
X81672500Y-62590000D01*
X81912500Y-62260000D01*
X82152500Y-62590000D01*
G36*
X82152500Y-62590000D02*
G01*
X81672500Y-62590000D01*
X81912500Y-62260000D01*
X82152500Y-62590000D01*
G37*
%TO.C,L1*%
X102850378Y-71940000D02*
X103649622Y-71940000D01*
X102850378Y-73060000D02*
X103649622Y-73060000D01*
%TO.C,J6*%
X74670000Y-61670000D02*
X76000000Y-61670000D01*
X74670000Y-63000000D02*
X74670000Y-61670000D01*
X74670000Y-64270000D02*
X74670000Y-64330000D01*
X74670000Y-64270000D02*
X77330000Y-64270000D01*
X74670000Y-64330000D02*
X77330000Y-64330000D01*
X77330000Y-64270000D02*
X77330000Y-64330000D01*
%TO.C,C3*%
X106109420Y-63240000D02*
X106390580Y-63240000D01*
X106109420Y-64260000D02*
X106390580Y-64260000D01*
%TO.C,C9*%
X91109420Y-71240000D02*
X91390580Y-71240000D01*
X91109420Y-72260000D02*
X91390580Y-72260000D01*
%TO.C,J8*%
X74670000Y-69170000D02*
X76000000Y-69170000D01*
X74670000Y-70500000D02*
X74670000Y-69170000D01*
X74670000Y-71770000D02*
X74670000Y-71830000D01*
X74670000Y-71770000D02*
X77330000Y-71770000D01*
X74670000Y-71830000D02*
X77330000Y-71830000D01*
X77330000Y-71770000D02*
X77330000Y-71830000D01*
%TO.C,R1*%
X103012742Y-70227500D02*
X103487258Y-70227500D01*
X103012742Y-71272500D02*
X103487258Y-71272500D01*
%TO.C,U1*%
X92390000Y-59390000D02*
X92840000Y-59390000D01*
X92390000Y-59840000D02*
X92390000Y-59390000D01*
X92390000Y-66160000D02*
X92390000Y-66610000D01*
X92390000Y-66610000D02*
X92840000Y-66610000D01*
X99610000Y-59390000D02*
X99160000Y-59390000D01*
X99610000Y-59840000D02*
X99610000Y-59390000D01*
X99610000Y-66160000D02*
X99610000Y-66610000D01*
X99610000Y-66610000D02*
X99160000Y-66610000D01*
X99630000Y-59140000D02*
X99160000Y-58800000D01*
X99630000Y-58460000D01*
X99630000Y-59140000D01*
G36*
X99630000Y-59140000D02*
G01*
X99160000Y-58800000D01*
X99630000Y-58460000D01*
X99630000Y-59140000D01*
G37*
%TO.C,D1*%
X79640000Y-71500000D02*
X79640000Y-73500000D01*
X79640000Y-71500000D02*
X83650000Y-71500000D01*
X79640000Y-73500000D02*
X83650000Y-73500000D01*
%TO.C,C4*%
X106109420Y-60490000D02*
X106390580Y-60490000D01*
X106109420Y-61510000D02*
X106390580Y-61510000D01*
%TO.C,J5*%
X74670000Y-57920000D02*
X76000000Y-57920000D01*
X74670000Y-59250000D02*
X74670000Y-57920000D01*
X74670000Y-60520000D02*
X74670000Y-60580000D01*
X74670000Y-60520000D02*
X77330000Y-60520000D01*
X74670000Y-60580000D02*
X77330000Y-60580000D01*
X77330000Y-60520000D02*
X77330000Y-60580000D01*
%TO.C,C2*%
X85609420Y-60740000D02*
X85890580Y-60740000D01*
X85609420Y-61760000D02*
X85890580Y-61760000D01*
%TO.C,C6*%
X109890580Y-63240000D02*
X109609420Y-63240000D01*
X109890580Y-64260000D02*
X109609420Y-64260000D01*
%TO.C,R3*%
X103012742Y-66727500D02*
X103487258Y-66727500D01*
X103012742Y-67772500D02*
X103487258Y-67772500D01*
%TO.C,C1*%
X81640580Y-65760000D02*
X81359420Y-65760000D01*
X81640580Y-64740000D02*
X81359420Y-64740000D01*
%TO.C,J10*%
X106435000Y-71425000D02*
X106885000Y-71825000D01*
X106435000Y-72225000D02*
X106435000Y-71425000D01*
X106885000Y-71825000D02*
X106435000Y-72225000D01*
X109685000Y-66375000D02*
X108135000Y-66375000D01*
X109685000Y-66675000D02*
X109685000Y-66375000D01*
X109685000Y-74675000D02*
X108135000Y-74675000D01*
X109685000Y-74675000D02*
X109685000Y-74375000D01*
X112485000Y-66675000D02*
X109685000Y-66675000D01*
X112485000Y-74375000D02*
X109685000Y-74375000D01*
%TO.C,J7*%
X74670000Y-65420000D02*
X76000000Y-65420000D01*
X74670000Y-66750000D02*
X74670000Y-65420000D01*
X74670000Y-68020000D02*
X74670000Y-68080000D01*
X74670000Y-68020000D02*
X77330000Y-68020000D01*
X74670000Y-68080000D02*
X77330000Y-68080000D01*
X77330000Y-68020000D02*
X77330000Y-68080000D01*
%TO.C,C8*%
X91109420Y-69240000D02*
X91390580Y-69240000D01*
X91109420Y-70260000D02*
X91390580Y-70260000D01*
%TO.C,R2*%
X103487258Y-68727500D02*
X103012742Y-68727500D01*
X103487258Y-69772500D02*
X103012742Y-69772500D01*
%TO.C,J9*%
X74670000Y-72920000D02*
X76000000Y-72920000D01*
X74670000Y-74250000D02*
X74670000Y-72920000D01*
X74670000Y-75520000D02*
X74670000Y-75580000D01*
X74670000Y-75520000D02*
X77330000Y-75520000D01*
X74670000Y-75580000D02*
X77330000Y-75580000D01*
X77330000Y-75520000D02*
X77330000Y-75580000D01*
%TO.C,C7*%
X91109420Y-73240000D02*
X91390580Y-73240000D01*
X91109420Y-74260000D02*
X91390580Y-74260000D01*
%TD*%
M02*
