%TF.GenerationSoftware,KiCad,Pcbnew,8.0.4+dfsg-1*%
%TF.CreationDate,2024-12-04T17:14:15+00:00*%
%TF.ProjectId,single-sided-radio-interface,73696e67-6c65-42d7-9369-6465642d7261,rev?*%
%TF.SameCoordinates,Original*%
%TF.FileFunction,Soldermask,Top*%
%TF.FilePolarity,Negative*%
%FSLAX46Y46*%
G04 Gerber Fmt 4.6, Leading zero omitted, Abs format (unit mm)*
G04 Created by KiCad (PCBNEW 8.0.4+dfsg-1) date 2024-12-04 17:14:15*
%MOMM*%
%LPD*%
G01*
G04 APERTURE LIST*
G04 Aperture macros list*
%AMRoundRect*
0 Rectangle with rounded corners*
0 $1 Rounding radius*
0 $2 $3 $4 $5 $6 $7 $8 $9 X,Y pos of 4 corners*
0 Add a 4 corners polygon primitive as box body*
4,1,4,$2,$3,$4,$5,$6,$7,$8,$9,$2,$3,0*
0 Add four circle primitives for the rounded corners*
1,1,$1+$1,$2,$3*
1,1,$1+$1,$4,$5*
1,1,$1+$1,$6,$7*
1,1,$1+$1,$8,$9*
0 Add four rect primitives between the rounded corners*
20,1,$1+$1,$2,$3,$4,$5,0*
20,1,$1+$1,$4,$5,$6,$7,0*
20,1,$1+$1,$6,$7,$8,$9,0*
20,1,$1+$1,$8,$9,$2,$3,0*%
G04 Aperture macros list end*
%ADD10R,1.400000X1.200000*%
%ADD11RoundRect,0.075000X-0.075000X0.662500X-0.075000X-0.662500X0.075000X-0.662500X0.075000X0.662500X0*%
%ADD12RoundRect,0.075000X-0.662500X0.075000X-0.662500X-0.075000X0.662500X-0.075000X0.662500X0.075000X0*%
%ADD13RoundRect,0.200000X-0.200000X-0.275000X0.200000X-0.275000X0.200000X0.275000X-0.200000X0.275000X0*%
%ADD14RoundRect,0.200000X0.200000X0.275000X-0.200000X0.275000X-0.200000X-0.275000X0.200000X-0.275000X0*%
%ADD15RoundRect,0.150000X0.587500X0.150000X-0.587500X0.150000X-0.587500X-0.150000X0.587500X-0.150000X0*%
%ADD16RoundRect,0.218750X-0.218750X-0.381250X0.218750X-0.381250X0.218750X0.381250X-0.218750X0.381250X0*%
%ADD17R,1.700000X1.700000*%
%ADD18RoundRect,0.225000X-0.225000X-0.375000X0.225000X-0.375000X0.225000X0.375000X-0.225000X0.375000X0*%
%ADD19RoundRect,0.225000X-0.225000X-0.250000X0.225000X-0.250000X0.225000X0.250000X-0.225000X0.250000X0*%
%ADD20RoundRect,0.225000X0.225000X0.250000X-0.225000X0.250000X-0.225000X-0.250000X0.225000X-0.250000X0*%
%ADD21RoundRect,0.225000X0.250000X-0.225000X0.250000X0.225000X-0.250000X0.225000X-0.250000X-0.225000X0*%
%ADD22R,1.650000X0.400000*%
%ADD23R,0.700000X1.825000*%
%ADD24R,1.500000X2.000000*%
%ADD25R,2.000000X1.350000*%
%ADD26O,1.700000X1.350000*%
%ADD27O,1.500000X1.100000*%
%ADD28R,2.500000X1.430000*%
G04 APERTURE END LIST*
D10*
%TO.C,Y1*%
X84650000Y-65350000D03*
X86850000Y-65350000D03*
X86850000Y-63650000D03*
X84650000Y-63650000D03*
%TD*%
D11*
%TO.C,U1*%
X98750000Y-58837500D03*
X98250000Y-58837500D03*
X97750000Y-58837500D03*
X97250000Y-58837500D03*
X96750000Y-58837500D03*
X96250000Y-58837500D03*
X95750000Y-58837500D03*
X95250000Y-58837500D03*
X94750000Y-58837500D03*
X94250000Y-58837500D03*
X93750000Y-58837500D03*
X93250000Y-58837500D03*
D12*
X91837500Y-60250000D03*
X91837500Y-60750000D03*
X91837500Y-61250000D03*
X91837500Y-61750000D03*
X91837500Y-62250000D03*
X91837500Y-62750000D03*
X91837500Y-63250000D03*
X91837500Y-63750000D03*
X91837500Y-64250000D03*
X91837500Y-64750000D03*
X91837500Y-65250000D03*
X91837500Y-65750000D03*
D11*
X93250000Y-67162500D03*
X93750000Y-67162500D03*
X94250000Y-67162500D03*
X94750000Y-67162500D03*
X95250000Y-67162500D03*
X95750000Y-67162500D03*
X96250000Y-67162500D03*
X96750000Y-67162500D03*
X97250000Y-67162500D03*
X97750000Y-67162500D03*
X98250000Y-67162500D03*
X98750000Y-67162500D03*
D12*
X100162500Y-65750000D03*
X100162500Y-65250000D03*
X100162500Y-64750000D03*
X100162500Y-64250000D03*
X100162500Y-63750000D03*
X100162500Y-63250000D03*
X100162500Y-62750000D03*
X100162500Y-62250000D03*
X100162500Y-61750000D03*
X100162500Y-61250000D03*
X100162500Y-60750000D03*
X100162500Y-60250000D03*
%TD*%
D13*
%TO.C,R3*%
X101675000Y-68250000D03*
X103325000Y-68250000D03*
%TD*%
D14*
%TO.C,R2*%
X103325000Y-70250000D03*
X101675000Y-70250000D03*
%TD*%
D13*
%TO.C,R1*%
X101675000Y-72000000D03*
X103325000Y-72000000D03*
%TD*%
D15*
%TO.C,Q1*%
X81687500Y-61700000D03*
X81687500Y-59800000D03*
X79812500Y-60750000D03*
%TD*%
D16*
%TO.C,L1*%
X101437500Y-74500000D03*
X103562500Y-74500000D03*
%TD*%
D17*
%TO.C,J9*%
X76000000Y-79500000D03*
%TD*%
%TO.C,J8*%
X76000000Y-74850000D03*
%TD*%
%TO.C,J7*%
X76000000Y-70200000D03*
%TD*%
%TO.C,J6*%
X76000000Y-65550000D03*
%TD*%
%TO.C,J5*%
X76000000Y-60900000D03*
%TD*%
D18*
%TO.C,D1*%
X80350000Y-75000000D03*
X83650000Y-75000000D03*
%TD*%
D19*
%TO.C,C9*%
X92025000Y-74750000D03*
X90475000Y-74750000D03*
%TD*%
%TO.C,C8*%
X90475000Y-72000000D03*
X92025000Y-72000000D03*
%TD*%
%TO.C,C7*%
X90475000Y-77000000D03*
X92025000Y-77000000D03*
%TD*%
D20*
%TO.C,C6*%
X110525000Y-63750000D03*
X108975000Y-63750000D03*
%TD*%
%TO.C,C5*%
X108975000Y-61000000D03*
X110525000Y-61000000D03*
%TD*%
D19*
%TO.C,C4*%
X107025000Y-61000000D03*
X105475000Y-61000000D03*
%TD*%
%TO.C,C3*%
X107025000Y-63750000D03*
X105475000Y-63750000D03*
%TD*%
%TO.C,C2*%
X84975000Y-61250000D03*
X86525000Y-61250000D03*
%TD*%
D21*
%TO.C,C1*%
X81500000Y-65525000D03*
X81500000Y-63975000D03*
%TD*%
D22*
%TO.C,J10*%
X107985000Y-71825000D03*
X107985000Y-71175000D03*
X107985000Y-70525000D03*
X107985000Y-69875000D03*
X107985000Y-69225000D03*
D23*
X109185000Y-73475000D03*
D24*
X107885000Y-73375000D03*
D25*
X109935000Y-73255000D03*
D26*
X110865000Y-73255000D03*
D27*
X107865000Y-72945000D03*
D28*
X111135000Y-71485000D03*
X111135000Y-69565000D03*
D27*
X107865000Y-68105000D03*
D26*
X110865000Y-67795000D03*
D25*
X109935000Y-67775000D03*
D24*
X107865000Y-67625000D03*
D23*
X109185000Y-67525000D03*
%TD*%
M02*
