%TF.GenerationSoftware,KiCad,Pcbnew,8.0.4+dfsg-1*%
%TF.CreationDate,2024-12-18T14:37:18+00:00*%
%TF.ProjectId,single-sided-radio-interface,73696e67-6c65-42d7-9369-6465642d7261,rev?*%
%TF.SameCoordinates,Original*%
%TF.FileFunction,Copper,L1,Top*%
%TF.FilePolarity,Positive*%
%FSLAX46Y46*%
G04 Gerber Fmt 4.6, Leading zero omitted, Abs format (unit mm)*
G04 Created by KiCad (PCBNEW 8.0.4+dfsg-1) date 2024-12-18 14:37:18*
%MOMM*%
%LPD*%
G01*
G04 APERTURE LIST*
G04 Aperture macros list*
%AMRoundRect*
0 Rectangle with rounded corners*
0 $1 Rounding radius*
0 $2 $3 $4 $5 $6 $7 $8 $9 X,Y pos of 4 corners*
0 Add a 4 corners polygon primitive as box body*
4,1,4,$2,$3,$4,$5,$6,$7,$8,$9,$2,$3,0*
0 Add four circle primitives for the rounded corners*
1,1,$1+$1,$2,$3*
1,1,$1+$1,$4,$5*
1,1,$1+$1,$6,$7*
1,1,$1+$1,$8,$9*
0 Add four rect primitives between the rounded corners*
20,1,$1+$1,$2,$3,$4,$5,0*
20,1,$1+$1,$4,$5,$6,$7,0*
20,1,$1+$1,$6,$7,$8,$9,0*
20,1,$1+$1,$8,$9,$2,$3,0*%
G04 Aperture macros list end*
%TA.AperFunction,SMDPad,CuDef*%
%ADD10R,1.400000X1.200000*%
%TD*%
%TA.AperFunction,SMDPad,CuDef*%
%ADD11RoundRect,0.225000X0.225000X0.250000X-0.225000X0.250000X-0.225000X-0.250000X0.225000X-0.250000X0*%
%TD*%
%TA.AperFunction,SMDPad,CuDef*%
%ADD12RoundRect,0.150000X0.587500X0.150000X-0.587500X0.150000X-0.587500X-0.150000X0.587500X-0.150000X0*%
%TD*%
%TA.AperFunction,SMDPad,CuDef*%
%ADD13RoundRect,0.218750X-0.218750X-0.381250X0.218750X-0.381250X0.218750X0.381250X-0.218750X0.381250X0*%
%TD*%
%TA.AperFunction,ComponentPad*%
%ADD14R,1.700000X1.700000*%
%TD*%
%TA.AperFunction,SMDPad,CuDef*%
%ADD15RoundRect,0.225000X-0.225000X-0.250000X0.225000X-0.250000X0.225000X0.250000X-0.225000X0.250000X0*%
%TD*%
%TA.AperFunction,SMDPad,CuDef*%
%ADD16RoundRect,0.200000X-0.200000X-0.275000X0.200000X-0.275000X0.200000X0.275000X-0.200000X0.275000X0*%
%TD*%
%TA.AperFunction,SMDPad,CuDef*%
%ADD17RoundRect,0.075000X-0.075000X0.662500X-0.075000X-0.662500X0.075000X-0.662500X0.075000X0.662500X0*%
%TD*%
%TA.AperFunction,SMDPad,CuDef*%
%ADD18RoundRect,0.075000X-0.662500X0.075000X-0.662500X-0.075000X0.662500X-0.075000X0.662500X0.075000X0*%
%TD*%
%TA.AperFunction,SMDPad,CuDef*%
%ADD19RoundRect,0.225000X-0.225000X-0.375000X0.225000X-0.375000X0.225000X0.375000X-0.225000X0.375000X0*%
%TD*%
%TA.AperFunction,SMDPad,CuDef*%
%ADD20R,1.650000X0.400000*%
%TD*%
%TA.AperFunction,SMDPad,CuDef*%
%ADD21R,0.700000X1.825000*%
%TD*%
%TA.AperFunction,SMDPad,CuDef*%
%ADD22R,1.500000X2.000000*%
%TD*%
%TA.AperFunction,SMDPad,CuDef*%
%ADD23R,2.000000X1.350000*%
%TD*%
%TA.AperFunction,ComponentPad*%
%ADD24O,1.700000X1.350000*%
%TD*%
%TA.AperFunction,ComponentPad*%
%ADD25O,1.500000X1.100000*%
%TD*%
%TA.AperFunction,SMDPad,CuDef*%
%ADD26R,2.500000X1.430000*%
%TD*%
%TA.AperFunction,SMDPad,CuDef*%
%ADD27RoundRect,0.200000X0.200000X0.275000X-0.200000X0.275000X-0.200000X-0.275000X0.200000X-0.275000X0*%
%TD*%
%TA.AperFunction,ViaPad*%
%ADD28C,0.600000*%
%TD*%
%TA.AperFunction,Conductor*%
%ADD29C,0.200000*%
%TD*%
G04 APERTURE END LIST*
D10*
%TO.P,Y1,1*%
%TO.N,Net-(U1-XI)*%
X84650000Y-65350000D03*
%TO.P,Y1,2,2*%
%TO.N,GND*%
X86850000Y-65350000D03*
%TO.P,Y1,3*%
%TO.N,Net-(U1-XO)*%
X86850000Y-63650000D03*
%TO.P,Y1,4,4*%
%TO.N,GND*%
X84650000Y-63650000D03*
%TD*%
D11*
%TO.P,C5,1*%
%TO.N,+3V3*%
X110525000Y-61000000D03*
%TO.P,C5,2*%
%TO.N,GND*%
X108975000Y-61000000D03*
%TD*%
D12*
%TO.P,Q1,1*%
%TO.N,Net-(Q1-G)*%
X81687500Y-61700000D03*
%TO.P,Q1,2,S*%
%TO.N,GND*%
X81687500Y-59800000D03*
%TO.P,Q1,3,D*%
%TO.N,PTT*%
X79812500Y-60750000D03*
%TD*%
D13*
%TO.P,L1,1,1*%
%TO.N,VCC*%
X102187500Y-72500000D03*
%TO.P,L1,2,2*%
%TO.N,unconnected-(J10-VBUS-Pad1)*%
X104312500Y-72500000D03*
%TD*%
D14*
%TO.P,J6,1,Pin_1*%
%TO.N,AUDIO_OUT*%
X76000000Y-63000000D03*
%TD*%
D15*
%TO.P,C3,1*%
%TO.N,VCC*%
X105475000Y-63750000D03*
%TO.P,C3,2*%
%TO.N,GND*%
X107025000Y-63750000D03*
%TD*%
%TO.P,C9,1*%
%TO.N,AUDIO_IN*%
X90475000Y-71750000D03*
%TO.P,C9,2*%
%TO.N,Net-(U1-MICIN)*%
X92025000Y-71750000D03*
%TD*%
D14*
%TO.P,J8,1,Pin_1*%
%TO.N,SQUELCH*%
X76000000Y-70500000D03*
%TD*%
D16*
%TO.P,R1,1*%
%TO.N,Net-(U1-USBDM)*%
X102425000Y-70750000D03*
%TO.P,R1,2*%
%TO.N,unconnected-(J10-D--Pad2)*%
X104075000Y-70750000D03*
%TD*%
D17*
%TO.P,U1,1*%
%TO.N,N/C*%
X98750000Y-58837500D03*
%TO.P,U1,2*%
X98250000Y-58837500D03*
%TO.P,U1,3*%
X97750000Y-58837500D03*
%TO.P,U1,4*%
X97250000Y-58837500D03*
%TO.P,U1,5*%
X96750000Y-58837500D03*
%TO.P,U1,6*%
X96250000Y-58837500D03*
%TO.P,U1,7,PWRSEL*%
%TO.N,+3V3*%
X95750000Y-58837500D03*
%TO.P,U1,8*%
%TO.N,Net-(U1-XI)*%
X95250000Y-58837500D03*
%TO.P,U1,9*%
%TO.N,Net-(U1-XO)*%
X94750000Y-58837500D03*
%TO.P,U1,10,MODE*%
%TO.N,GND*%
X94250000Y-58837500D03*
%TO.P,U1,11*%
%TO.N,N/C*%
X93750000Y-58837500D03*
%TO.P,U1,12*%
X93250000Y-58837500D03*
D18*
%TO.P,U1,13*%
%TO.N,Net-(Q1-G)*%
X91837500Y-60250000D03*
%TO.P,U1,14,DVSS*%
%TO.N,GND*%
X91837500Y-60750000D03*
%TO.P,U1,15*%
%TO.N,N/C*%
X91837500Y-61250000D03*
%TO.P,U1,16*%
X91837500Y-61750000D03*
%TO.P,U1,17*%
X91837500Y-62250000D03*
%TO.P,U1,18*%
X91837500Y-62750000D03*
%TO.P,U1,19*%
X91837500Y-63250000D03*
%TO.P,U1,20*%
X91837500Y-63750000D03*
%TO.P,U1,21*%
X91837500Y-64250000D03*
%TO.P,U1,22,ADSEL*%
%TO.N,GND*%
X91837500Y-64750000D03*
%TO.P,U1,23,TEST*%
X91837500Y-65250000D03*
%TO.P,U1,24,AVSS*%
X91837500Y-65750000D03*
D17*
%TO.P,U1,25*%
%TO.N,N/C*%
X93250000Y-67162500D03*
%TO.P,U1,26*%
%TO.N,NET-(U1-BGREF)*%
X93750000Y-67162500D03*
%TO.P,U1,27*%
%TO.N,Net-(U1-MICIN)*%
X94250000Y-67162500D03*
%TO.P,U1,28*%
%TO.N,N/C*%
X94750000Y-67162500D03*
%TO.P,U1,29,AVDD*%
%TO.N,VCC*%
X95250000Y-67162500D03*
%TO.P,U1,30*%
%TO.N,Net-(U1-LOL)*%
X95750000Y-67162500D03*
%TO.P,U1,31*%
%TO.N,N/C*%
X96250000Y-67162500D03*
%TO.P,U1,32*%
X96750000Y-67162500D03*
%TO.P,U1,33,AVSS*%
%TO.N,GND*%
X97250000Y-67162500D03*
%TO.P,U1,34,AVDD*%
%TO.N,VCC*%
X97750000Y-67162500D03*
%TO.P,U1,35,DVDD*%
X98250000Y-67162500D03*
%TO.P,U1,36,DVSS*%
%TO.N,GND*%
X98750000Y-67162500D03*
D18*
%TO.P,U1,37,REGV*%
%TO.N,+3V3*%
X100162500Y-65750000D03*
%TO.P,U1,38,MSEL*%
X100162500Y-65250000D03*
%TO.P,U1,39*%
%TO.N,N/C*%
X100162500Y-64750000D03*
%TO.P,U1,40*%
X100162500Y-64250000D03*
%TO.P,U1,41*%
%TO.N,NET-(U1-USBDP)*%
X100162500Y-63750000D03*
%TO.P,U1,42*%
%TO.N,Net-(U1-USBDM)*%
X100162500Y-63250000D03*
%TO.P,U1,43*%
%TO.N,N/C*%
X100162500Y-62750000D03*
%TO.P,U1,44*%
X100162500Y-62250000D03*
%TO.P,U1,45*%
X100162500Y-61750000D03*
%TO.P,U1,46*%
X100162500Y-61250000D03*
%TO.P,U1,47*%
X100162500Y-60750000D03*
%TO.P,U1,48*%
%TO.N,Net-(D1-A)*%
X100162500Y-60250000D03*
%TD*%
D19*
%TO.P,D1,1,K*%
%TO.N,SQUELCH*%
X80350000Y-72500000D03*
%TO.P,D1,2*%
%TO.N,Net-(D1-A)*%
X83650000Y-72500000D03*
%TD*%
D15*
%TO.P,C4,1*%
%TO.N,VCC*%
X105475000Y-61000000D03*
%TO.P,C4,2*%
%TO.N,GND*%
X107025000Y-61000000D03*
%TD*%
D14*
%TO.P,J5,1,Pin_1*%
%TO.N,PTT*%
X76000000Y-59250000D03*
%TD*%
D15*
%TO.P,C2,1*%
%TO.N,GND*%
X84975000Y-61250000D03*
%TO.P,C2,2*%
%TO.N,Net-(U1-XO)*%
X86525000Y-61250000D03*
%TD*%
D11*
%TO.P,C6,1*%
%TO.N,+3V3*%
X110525000Y-63750000D03*
%TO.P,C6,2*%
%TO.N,GND*%
X108975000Y-63750000D03*
%TD*%
D16*
%TO.P,R3,1*%
%TO.N,NET-(U1-USBDP)*%
X102425000Y-67250000D03*
%TO.P,R3,2*%
%TO.N,unconnected-(J10-D+-Pad3)*%
X104075000Y-67250000D03*
%TD*%
D11*
%TO.P,C1,1*%
%TO.N,Net-(U1-XI)*%
X82275000Y-65250000D03*
%TO.P,C1,2*%
%TO.N,GND*%
X80725000Y-65250000D03*
%TD*%
D20*
%TO.P,J10,1,VBUS*%
%TO.N,unconnected-(J10-VBUS-Pad1)*%
X107985000Y-71825000D03*
%TO.P,J10,2,D-*%
%TO.N,unconnected-(J10-D--Pad2)*%
X107985000Y-71175000D03*
%TO.P,J10,3,D+*%
%TO.N,unconnected-(J10-D+-Pad3)*%
X107985000Y-70525000D03*
%TO.P,J10,4,ID*%
%TO.N,unconnected-(J10-ID-Pad4)*%
X107985000Y-69875000D03*
%TO.P,J10,5,GND*%
%TO.N,GND*%
X107985000Y-69225000D03*
D21*
%TO.P,J10,6,Shield*%
%TO.N,unconnected-(J10-Shield-Pad6)*%
X109185000Y-73475000D03*
D22*
X107885000Y-73375000D03*
D23*
X109935000Y-73255000D03*
D24*
X110865000Y-73255000D03*
D25*
X107865000Y-72945000D03*
D26*
X111135000Y-71485000D03*
X111135000Y-69565000D03*
D25*
X107865000Y-68105000D03*
D24*
X110865000Y-67795000D03*
D23*
X109935000Y-67775000D03*
D22*
X107865000Y-67625000D03*
D21*
X109185000Y-67525000D03*
%TD*%
D14*
%TO.P,J7,1,Pin_1*%
%TO.N,AUDIO_IN*%
X76000000Y-66750000D03*
%TD*%
D15*
%TO.P,C8,1*%
%TO.N,AUDIO_OUT*%
X90475000Y-69750000D03*
%TO.P,C8,2*%
%TO.N,Net-(U1-LOL)*%
X92025000Y-69750000D03*
%TD*%
D27*
%TO.P,R2,1*%
%TO.N,unconnected-(J10-D+-Pad3)*%
X104075000Y-69250000D03*
%TO.P,R2,2*%
%TO.N,+3V3*%
X102425000Y-69250000D03*
%TD*%
D14*
%TO.P,J9,1,Pin_1*%
%TO.N,GND*%
X76000000Y-74250000D03*
%TD*%
D15*
%TO.P,C7,1*%
%TO.N,NET-(U1-BGREF)*%
X90475000Y-73750000D03*
%TO.P,C7,2*%
%TO.N,GND*%
X92025000Y-73750000D03*
%TD*%
D28*
%TO.N,GND*%
X87750000Y-66750000D03*
X98850000Y-70000000D03*
X97250000Y-70000000D03*
X85250000Y-68250000D03*
X105674265Y-69325735D03*
X103250000Y-73750000D03*
%TO.N,VCC*%
X101250000Y-71350000D03*
X105886765Y-64863235D03*
%TO.N,+3V3*%
X102500000Y-60250000D03*
X100500000Y-67500000D03*
%TO.N,Net-(D1-A)*%
X98250000Y-60250000D03*
X85500000Y-72500000D03*
%TO.N,Net-(U1-USBDM)*%
X100500000Y-70000000D03*
X101750000Y-62750000D03*
%TO.N,Net-(U1-XO)*%
X88400000Y-63750000D03*
X94250000Y-60250000D03*
%TO.N,NET-(U1-BGREF)*%
X88750000Y-74250000D03*
X93625000Y-69250000D03*
%TO.N,Net-(U1-LOL)*%
X95850000Y-68750000D03*
X93500000Y-70250000D03*
%TD*%
D29*
%TO.N,+3V3*%
X102500000Y-60250000D02*
X103000000Y-59750000D01*
X103000000Y-59750000D02*
X109275000Y-59750000D01*
X109275000Y-59750000D02*
X110525000Y-61000000D01*
X102500000Y-60250000D02*
X100000000Y-57750000D01*
X100000000Y-57750000D02*
X96067590Y-57750000D01*
X96067590Y-57750000D02*
X95750000Y-58067590D01*
X95750000Y-58067590D02*
X95750000Y-58837500D01*
%TO.N,GND*%
X99412500Y-67162500D02*
X99500000Y-67250000D01*
X98750000Y-67162500D02*
X99412500Y-67162500D01*
%TO.N,Net-(U1-XI)*%
X95250000Y-58837500D02*
X95250000Y-63607410D01*
X95250000Y-63607410D02*
X91357410Y-67500000D01*
X91357410Y-67500000D02*
X86800000Y-67500000D01*
X86800000Y-67500000D02*
X84650000Y-65350000D01*
X82275000Y-65250000D02*
X82375000Y-65350000D01*
X82375000Y-65350000D02*
X84650000Y-65350000D01*
%TO.N,AUDIO_OUT*%
X76000000Y-63000000D02*
X76000000Y-63250000D01*
X76000000Y-63250000D02*
X82500000Y-69750000D01*
X82500000Y-69750000D02*
X90475000Y-69750000D01*
%TO.N,SQUELCH*%
X80350000Y-72500000D02*
X78000000Y-72500000D01*
X78000000Y-72500000D02*
X76000000Y-70500000D01*
%TO.N,AUDIO_IN*%
X90475000Y-71750000D02*
X88000000Y-71750000D01*
X88000000Y-71750000D02*
X87000000Y-70750000D01*
X87000000Y-70750000D02*
X79750000Y-70750000D01*
X79750000Y-70750000D02*
X76000000Y-67000000D01*
X76000000Y-67000000D02*
X76000000Y-66750000D01*
%TO.N,PTT*%
X76750000Y-60000000D02*
X76000000Y-59250000D01*
X79812500Y-60750000D02*
X79062500Y-60000000D01*
X79062500Y-60000000D02*
X76750000Y-60000000D01*
%TO.N,VCC*%
X95250000Y-69000000D02*
X97600000Y-71350000D01*
X97600000Y-71350000D02*
X101250000Y-71350000D01*
X102187500Y-72500000D02*
X102187500Y-72287500D01*
X102187500Y-72287500D02*
X101250000Y-71350000D01*
X102187500Y-72500000D02*
X101937500Y-72750000D01*
X95250000Y-67162500D02*
X95250000Y-69000000D01*
X98250000Y-68750000D02*
X98250000Y-71250000D01*
%TO.N,unconnected-(J10-VBUS-Pad1)*%
X104312500Y-72500000D02*
X106000000Y-72500000D01*
X106000000Y-72500000D02*
X106675000Y-71825000D01*
X106675000Y-71825000D02*
X107985000Y-71825000D01*
%TO.N,Net-(U1-USBDM)*%
X100500000Y-70000000D02*
X101250000Y-70750000D01*
X101250000Y-70750000D02*
X102425000Y-70750000D01*
%TO.N,unconnected-(J10-D--Pad2)*%
X107970000Y-71190000D02*
X107985000Y-71175000D01*
X104075000Y-70750000D02*
X104620000Y-70750000D01*
X104620000Y-70750000D02*
X105060000Y-71190000D01*
X105060000Y-71190000D02*
X107970000Y-71190000D01*
%TO.N,+3V3*%
X100500000Y-67500000D02*
X101250000Y-66750000D01*
X101250000Y-65750000D02*
X100162500Y-65750000D01*
X100500000Y-67500000D02*
X102250000Y-69250000D01*
X101750000Y-65500000D02*
X101500000Y-65250000D01*
X102250000Y-69250000D02*
X102425000Y-69250000D01*
X101250000Y-66750000D02*
X101250000Y-65750000D01*
X100500000Y-67500000D02*
X101750000Y-66250000D01*
X101750000Y-66250000D02*
X101750000Y-65500000D01*
X101500000Y-65250000D02*
X100162500Y-65250000D01*
%TO.N,unconnected-(J10-D+-Pad3)*%
X104075000Y-69250000D02*
X105350000Y-70525000D01*
X105350000Y-70525000D02*
X107985000Y-70525000D01*
%TO.N,NET-(U1-USBDP)*%
X102425000Y-67250000D02*
X102250000Y-67075000D01*
X102250000Y-67075000D02*
X102250000Y-65067590D01*
X102250000Y-65067590D02*
X100932410Y-63750000D01*
X100932410Y-63750000D02*
X100162500Y-63750000D01*
%TO.N,unconnected-(J10-D+-Pad3)*%
X104075000Y-67250000D02*
X104075000Y-68575000D01*
X104075000Y-68575000D02*
X106025000Y-70525000D01*
X106025000Y-70525000D02*
X107985000Y-70525000D01*
%TO.N,NET-(U1-BGREF)*%
X88750000Y-74250000D02*
X89975000Y-74250000D01*
X89975000Y-74250000D02*
X90475000Y-73750000D01*
%TO.N,Net-(U1-MICIN)*%
X93550000Y-71750000D02*
X92025000Y-71750000D01*
X94250000Y-67162500D02*
X94250000Y-71050000D01*
X94250000Y-71050000D02*
X93550000Y-71750000D01*
%TO.N,Net-(U1-LOL)*%
X92525000Y-70250000D02*
X92025000Y-69750000D01*
X93500000Y-70250000D02*
X92525000Y-70250000D01*
%TO.N,NET-(U1-BGREF)*%
X93750000Y-69125000D02*
X93750000Y-67162500D01*
X93625000Y-69250000D02*
X93750000Y-69125000D01*
%TO.N,Net-(D1-A)*%
X85500000Y-72500000D02*
X83650000Y-72500000D01*
%TO.N,GND*%
X108975000Y-61000000D02*
X108725000Y-60750000D01*
X105975000Y-69225000D02*
X107985000Y-69225000D01*
X98750000Y-67162500D02*
X98750000Y-69900000D01*
X105674265Y-69325735D02*
X105874265Y-69325735D01*
X107275000Y-64000000D02*
X107025000Y-63750000D01*
X91067590Y-60750000D02*
X91837500Y-60750000D01*
X91837500Y-64750000D02*
X90500000Y-64750000D01*
X91837500Y-60750000D02*
X90750000Y-60750000D01*
X86850000Y-65350000D02*
X86850000Y-65850000D01*
X94250000Y-58067590D02*
X93982410Y-57800000D01*
X90750000Y-60750000D02*
X90000000Y-61500000D01*
X107275000Y-60750000D02*
X107025000Y-61000000D01*
X105874265Y-69325735D02*
X105975000Y-69225000D01*
X97250000Y-67162500D02*
X97250000Y-70000000D01*
X93982410Y-57800000D02*
X83687500Y-57800000D01*
X98750000Y-69900000D02*
X98850000Y-70000000D01*
X108975000Y-63750000D02*
X108725000Y-64000000D01*
X84650000Y-61575000D02*
X84975000Y-61250000D01*
X83687500Y-57800000D02*
X81687500Y-59800000D01*
X86850000Y-65850000D02*
X87750000Y-66750000D01*
X94250000Y-58837500D02*
X94250000Y-58067590D01*
%TO.N,VCC*%
X105886765Y-64161765D02*
X105475000Y-63750000D01*
X105475000Y-63750000D02*
X105475000Y-61000000D01*
X98250000Y-67162500D02*
X98250000Y-68750000D01*
X97750000Y-68250000D02*
X98250000Y-68750000D01*
X105886765Y-64863235D02*
X105886765Y-64161765D01*
X97750000Y-67162500D02*
X97750000Y-68250000D01*
%TO.N,+3V3*%
X110525000Y-61000000D02*
X110525000Y-63750000D01*
%TO.N,unconnected-(J10-Shield-Pad6)*%
X107865000Y-68105000D02*
X110555000Y-68105000D01*
X110555000Y-72945000D02*
X110865000Y-73255000D01*
X110865000Y-69295000D02*
X111135000Y-69565000D01*
X110865000Y-67795000D02*
X110865000Y-69295000D01*
X111135000Y-72985000D02*
X110865000Y-73255000D01*
X110555000Y-68105000D02*
X110865000Y-67795000D01*
X107865000Y-72945000D02*
X110555000Y-72945000D01*
X111135000Y-71485000D02*
X111135000Y-72985000D01*
X111135000Y-69565000D02*
X111135000Y-71485000D01*
%TO.N,Net-(D1-A)*%
X98250000Y-60250000D02*
X100162500Y-60250000D01*
%TO.N,Net-(U1-USBDM)*%
X101250000Y-63250000D02*
X100162500Y-63250000D01*
X101750000Y-62750000D02*
X101250000Y-63250000D01*
%TO.N,Net-(U1-XO)*%
X86850000Y-63350000D02*
X86525000Y-63025000D01*
X86950000Y-63750000D02*
X86850000Y-63650000D01*
X94250000Y-60250000D02*
X94750000Y-59750000D01*
X86850000Y-63650000D02*
X86850000Y-63350000D01*
X94750000Y-59750000D02*
X94750000Y-58837500D01*
X86850000Y-61575000D02*
X86525000Y-61250000D01*
X88400000Y-63750000D02*
X86950000Y-63750000D01*
X86850000Y-63650000D02*
X87100000Y-63650000D01*
X86525000Y-63025000D02*
X86525000Y-61250000D01*
%TO.N,Net-(Q1-G)*%
X83137500Y-60250000D02*
X81687500Y-61700000D01*
X91837500Y-60250000D02*
X83137500Y-60250000D01*
%TO.N,Net-(U1-LOL)*%
X95750000Y-68650000D02*
X95850000Y-68750000D01*
X95750000Y-67162500D02*
X95750000Y-68650000D01*
%TD*%
%TA.AperFunction,Conductor*%
%TO.N,GND*%
G36*
X112942539Y-56770185D02*
G01*
X112988294Y-56822989D01*
X112999500Y-56874500D01*
X112999500Y-68463143D01*
X112979815Y-68530182D01*
X112927011Y-68575937D01*
X112857853Y-68585881D01*
X112794297Y-68556856D01*
X112776234Y-68537455D01*
X112744957Y-68495675D01*
X112742546Y-68492454D01*
X112742544Y-68492453D01*
X112742544Y-68492452D01*
X112627335Y-68406206D01*
X112627328Y-68406202D01*
X112492482Y-68355908D01*
X112492483Y-68355908D01*
X112432883Y-68349501D01*
X112432881Y-68349500D01*
X112432873Y-68349500D01*
X112432865Y-68349500D01*
X112266497Y-68349500D01*
X112199458Y-68329815D01*
X112153703Y-68277011D01*
X112143759Y-68207853D01*
X112148566Y-68187182D01*
X112186555Y-68070264D01*
X112215500Y-67887514D01*
X112215500Y-67702486D01*
X112186555Y-67519736D01*
X112149765Y-67406506D01*
X112129380Y-67343767D01*
X112129379Y-67343764D01*
X112086577Y-67259763D01*
X112045378Y-67178904D01*
X111936621Y-67029213D01*
X111805787Y-66898379D01*
X111656096Y-66789622D01*
X111491235Y-66705620D01*
X111491232Y-66705619D01*
X111315265Y-66648445D01*
X111223889Y-66633972D01*
X111132514Y-66619500D01*
X111132513Y-66619500D01*
X111101295Y-66619500D01*
X111057961Y-66611681D01*
X111042491Y-66605911D01*
X111042480Y-66605908D01*
X110982883Y-66599501D01*
X110982881Y-66599500D01*
X110982873Y-66599500D01*
X110982865Y-66599500D01*
X110149531Y-66599500D01*
X110082492Y-66579815D01*
X110036737Y-66527011D01*
X110030408Y-66508548D01*
X109978797Y-66370171D01*
X109978793Y-66370164D01*
X109892547Y-66254955D01*
X109892544Y-66254952D01*
X109777335Y-66168706D01*
X109777328Y-66168702D01*
X109642482Y-66118408D01*
X109642483Y-66118408D01*
X109582883Y-66112001D01*
X109582881Y-66112000D01*
X109582873Y-66112000D01*
X109582864Y-66112000D01*
X108787129Y-66112000D01*
X108787123Y-66112001D01*
X108727515Y-66118409D01*
X108719971Y-66120192D01*
X108719761Y-66119307D01*
X108671248Y-66125400D01*
X108664927Y-66124720D01*
X108662873Y-66124500D01*
X108662863Y-66124500D01*
X107067129Y-66124500D01*
X107067123Y-66124501D01*
X107007516Y-66130908D01*
X106872671Y-66181202D01*
X106872664Y-66181206D01*
X106757455Y-66267452D01*
X106757452Y-66267455D01*
X106671206Y-66382664D01*
X106671202Y-66382671D01*
X106620908Y-66517517D01*
X106614501Y-66577116D01*
X106614500Y-66577135D01*
X106614500Y-68672870D01*
X106614501Y-68672876D01*
X106620908Y-68732483D01*
X106662394Y-68843712D01*
X106667127Y-68909901D01*
X106667231Y-68909913D01*
X106667169Y-68910486D01*
X106667378Y-68913404D01*
X106666892Y-68915545D01*
X106666402Y-68917617D01*
X106660000Y-68977155D01*
X106660000Y-69025000D01*
X106772893Y-69025000D01*
X106839932Y-69044685D01*
X106847202Y-69049732D01*
X106871038Y-69067575D01*
X106912910Y-69123508D01*
X106917895Y-69193200D01*
X106884411Y-69254523D01*
X106871041Y-69266109D01*
X106835848Y-69292455D01*
X106802454Y-69317454D01*
X106759141Y-69375312D01*
X106703209Y-69417182D01*
X106660027Y-69424972D01*
X106660000Y-69425000D01*
X106660000Y-69472844D01*
X106666619Y-69534398D01*
X106666620Y-69560909D01*
X106665909Y-69567514D01*
X106665909Y-69567517D01*
X106659500Y-69627127D01*
X106659500Y-69749097D01*
X106659501Y-69800499D01*
X106639817Y-69867539D01*
X106587013Y-69913294D01*
X106535501Y-69924500D01*
X106325097Y-69924500D01*
X106258058Y-69904815D01*
X106237416Y-69888181D01*
X104711819Y-68362584D01*
X104678334Y-68301261D01*
X104675500Y-68274903D01*
X104675500Y-68166519D01*
X104695185Y-68099480D01*
X104711814Y-68078842D01*
X104830472Y-67960185D01*
X104918478Y-67814606D01*
X104969086Y-67652196D01*
X104975500Y-67581616D01*
X104975500Y-66918384D01*
X104969086Y-66847804D01*
X104918478Y-66685394D01*
X104830472Y-66539815D01*
X104830470Y-66539813D01*
X104830469Y-66539811D01*
X104710188Y-66419530D01*
X104666881Y-66393350D01*
X104564606Y-66331522D01*
X104402196Y-66280914D01*
X104402194Y-66280913D01*
X104402192Y-66280913D01*
X104352778Y-66276423D01*
X104331616Y-66274500D01*
X103818384Y-66274500D01*
X103799145Y-66276248D01*
X103747807Y-66280913D01*
X103585393Y-66331522D01*
X103439811Y-66419530D01*
X103439810Y-66419531D01*
X103337681Y-66521661D01*
X103276358Y-66555146D01*
X103206666Y-66550162D01*
X103162319Y-66521661D01*
X103060188Y-66419530D01*
X103016881Y-66393350D01*
X102914606Y-66331522D01*
X102910350Y-66328949D01*
X102863162Y-66277421D01*
X102850500Y-66222832D01*
X102850500Y-65156650D01*
X102850501Y-65156637D01*
X102850501Y-64988534D01*
X102849165Y-64983548D01*
X102809577Y-64835806D01*
X102804896Y-64827698D01*
X102730524Y-64698880D01*
X102730518Y-64698872D01*
X102272469Y-64240823D01*
X101785765Y-63754120D01*
X101752281Y-63692798D01*
X101757265Y-63623107D01*
X101799137Y-63567173D01*
X101859565Y-63543220D01*
X101929252Y-63535369D01*
X101929255Y-63535368D01*
X102099522Y-63475789D01*
X102252262Y-63379816D01*
X102379816Y-63252262D01*
X102475789Y-63099522D01*
X102535368Y-62929255D01*
X102535574Y-62927427D01*
X102555565Y-62750003D01*
X102555565Y-62749996D01*
X102535369Y-62570750D01*
X102535368Y-62570745D01*
X102475789Y-62400478D01*
X102455429Y-62368076D01*
X102379815Y-62247737D01*
X102252262Y-62120184D01*
X102099523Y-62024211D01*
X101929254Y-61964631D01*
X101929249Y-61964630D01*
X101750004Y-61944435D01*
X101749996Y-61944435D01*
X101570750Y-61964630D01*
X101570742Y-61964632D01*
X101565454Y-61966483D01*
X101495675Y-61970044D01*
X101435048Y-61935315D01*
X101402821Y-61873322D01*
X101400500Y-61849441D01*
X101400500Y-61637286D01*
X101400500Y-61637280D01*
X101385687Y-61524764D01*
X101385686Y-61524763D01*
X101384626Y-61516705D01*
X101387689Y-61516301D01*
X101387689Y-61483698D01*
X101384626Y-61483295D01*
X101389347Y-61447432D01*
X101400500Y-61362720D01*
X101400500Y-61137280D01*
X101385687Y-61024764D01*
X101385686Y-61024763D01*
X101384626Y-61016705D01*
X101387689Y-61016301D01*
X101387689Y-60983698D01*
X101384626Y-60983295D01*
X101386943Y-60965694D01*
X101400500Y-60862720D01*
X101400500Y-60637280D01*
X101385687Y-60524764D01*
X101385686Y-60524763D01*
X101384626Y-60516705D01*
X101387689Y-60516301D01*
X101387689Y-60483698D01*
X101384626Y-60483295D01*
X101390154Y-60441303D01*
X101400500Y-60362720D01*
X101400500Y-60299097D01*
X101420185Y-60232058D01*
X101472989Y-60186303D01*
X101542147Y-60176359D01*
X101605703Y-60205384D01*
X101612181Y-60211416D01*
X101669298Y-60268533D01*
X101702783Y-60329856D01*
X101704837Y-60342330D01*
X101714630Y-60429249D01*
X101714631Y-60429254D01*
X101714632Y-60429255D01*
X101722538Y-60451849D01*
X101774210Y-60599521D01*
X101838380Y-60701647D01*
X101870184Y-60752262D01*
X101997738Y-60879816D01*
X102087210Y-60936035D01*
X102150474Y-60975787D01*
X102150478Y-60975789D01*
X102267409Y-61016705D01*
X102320745Y-61035368D01*
X102320750Y-61035369D01*
X102499996Y-61055565D01*
X102500000Y-61055565D01*
X102500004Y-61055565D01*
X102679249Y-61035369D01*
X102679252Y-61035368D01*
X102679255Y-61035368D01*
X102849522Y-60975789D01*
X103002262Y-60879816D01*
X103129816Y-60752262D01*
X103225789Y-60599522D01*
X103283867Y-60433545D01*
X103324589Y-60376769D01*
X103389542Y-60351022D01*
X103400909Y-60350500D01*
X104446366Y-60350500D01*
X104513405Y-60370185D01*
X104559160Y-60422989D01*
X104569104Y-60492147D01*
X104564072Y-60513504D01*
X104534651Y-60602290D01*
X104524500Y-60701647D01*
X104524500Y-61298337D01*
X104524501Y-61298355D01*
X104534650Y-61397707D01*
X104534651Y-61397710D01*
X104587996Y-61558694D01*
X104588001Y-61558705D01*
X104677029Y-61703040D01*
X104677032Y-61703044D01*
X104796956Y-61822968D01*
X104815596Y-61834465D01*
X104862321Y-61886412D01*
X104874500Y-61940004D01*
X104874500Y-62809995D01*
X104854815Y-62877034D01*
X104815600Y-62915532D01*
X104796954Y-62927033D01*
X104677029Y-63046959D01*
X104588001Y-63191294D01*
X104587996Y-63191305D01*
X104534651Y-63352290D01*
X104524500Y-63451647D01*
X104524500Y-64048337D01*
X104524501Y-64048355D01*
X104534650Y-64147707D01*
X104534651Y-64147710D01*
X104587996Y-64308694D01*
X104588001Y-64308705D01*
X104677029Y-64453040D01*
X104677032Y-64453044D01*
X104796955Y-64572967D01*
X104796959Y-64572970D01*
X104941294Y-64661998D01*
X104941297Y-64661999D01*
X104941303Y-64662003D01*
X105002544Y-64682296D01*
X105059988Y-64722067D01*
X105086812Y-64786582D01*
X105086760Y-64813884D01*
X105081200Y-64863232D01*
X105081200Y-64863238D01*
X105101395Y-65042484D01*
X105101396Y-65042489D01*
X105160976Y-65212758D01*
X105168040Y-65224000D01*
X105256949Y-65365497D01*
X105384503Y-65493051D01*
X105537243Y-65589024D01*
X105704664Y-65647607D01*
X105707510Y-65648603D01*
X105707515Y-65648604D01*
X105886761Y-65668800D01*
X105886765Y-65668800D01*
X105886769Y-65668800D01*
X106066014Y-65648604D01*
X106066017Y-65648603D01*
X106066020Y-65648603D01*
X106236287Y-65589024D01*
X106389027Y-65493051D01*
X106516581Y-65365497D01*
X106612554Y-65212757D01*
X106672133Y-65042490D01*
X106676921Y-65000000D01*
X106682365Y-64951677D01*
X106692330Y-64863235D01*
X106692290Y-64862884D01*
X106692330Y-64862659D01*
X106692330Y-64856271D01*
X106693449Y-64856271D01*
X106704341Y-64794065D01*
X106751687Y-64742683D01*
X106759475Y-64740524D01*
X106775000Y-64724999D01*
X107275000Y-64724999D01*
X107298308Y-64724999D01*
X107298322Y-64724998D01*
X107397607Y-64714855D01*
X107558481Y-64661547D01*
X107558492Y-64661542D01*
X107702728Y-64572575D01*
X107702732Y-64572572D01*
X107822572Y-64452732D01*
X107822575Y-64452728D01*
X107894462Y-64336183D01*
X107946410Y-64289458D01*
X108015372Y-64278237D01*
X108079454Y-64306080D01*
X108105538Y-64336183D01*
X108177424Y-64452728D01*
X108177427Y-64452732D01*
X108297267Y-64572572D01*
X108297271Y-64572575D01*
X108441507Y-64661542D01*
X108441518Y-64661547D01*
X108602393Y-64714855D01*
X108701683Y-64724999D01*
X108725000Y-64724998D01*
X108725000Y-64000000D01*
X107275000Y-64000000D01*
X107275000Y-64724999D01*
X106775000Y-64724999D01*
X106775000Y-62775000D01*
X107275000Y-62775000D01*
X107275000Y-63500000D01*
X108725000Y-63500000D01*
X108725000Y-62774999D01*
X108701693Y-62775000D01*
X108701674Y-62775001D01*
X108602392Y-62785144D01*
X108441518Y-62838452D01*
X108441507Y-62838457D01*
X108297271Y-62927424D01*
X108297267Y-62927427D01*
X108177427Y-63047267D01*
X108177424Y-63047271D01*
X108105538Y-63163816D01*
X108053590Y-63210541D01*
X107984627Y-63221762D01*
X107920545Y-63193919D01*
X107894462Y-63163816D01*
X107822575Y-63047271D01*
X107822572Y-63047267D01*
X107702732Y-62927427D01*
X107702728Y-62927424D01*
X107558492Y-62838457D01*
X107558481Y-62838452D01*
X107397606Y-62785144D01*
X107298322Y-62775000D01*
X107275000Y-62775000D01*
X106775000Y-62775000D01*
X106775000Y-62774999D01*
X106751693Y-62775000D01*
X106751674Y-62775001D01*
X106652392Y-62785144D01*
X106491518Y-62838452D01*
X106491507Y-62838457D01*
X106347271Y-62927424D01*
X106347264Y-62927430D01*
X106338028Y-62936665D01*
X106276703Y-62970146D01*
X106207011Y-62965157D01*
X106162672Y-62936659D01*
X106153047Y-62927034D01*
X106134400Y-62915532D01*
X106087677Y-62863582D01*
X106075500Y-62809995D01*
X106075500Y-61940004D01*
X106095185Y-61872965D01*
X106134403Y-61834465D01*
X106153044Y-61822968D01*
X106162668Y-61813343D01*
X106223987Y-61779856D01*
X106293679Y-61784835D01*
X106338034Y-61813339D01*
X106347267Y-61822572D01*
X106347271Y-61822575D01*
X106491507Y-61911542D01*
X106491518Y-61911547D01*
X106652393Y-61964855D01*
X106751683Y-61974999D01*
X107275000Y-61974999D01*
X107298308Y-61974999D01*
X107298322Y-61974998D01*
X107397607Y-61964855D01*
X107558481Y-61911547D01*
X107558492Y-61911542D01*
X107702728Y-61822575D01*
X107702732Y-61822572D01*
X107822572Y-61702732D01*
X107822575Y-61702728D01*
X107894462Y-61586183D01*
X107946410Y-61539458D01*
X108015372Y-61528237D01*
X108079454Y-61556080D01*
X108105538Y-61586183D01*
X108177424Y-61702728D01*
X108177427Y-61702732D01*
X108297267Y-61822572D01*
X108297271Y-61822575D01*
X108441507Y-61911542D01*
X108441518Y-61911547D01*
X108602393Y-61964855D01*
X108701683Y-61974999D01*
X108725000Y-61974998D01*
X108725000Y-61250000D01*
X107275000Y-61250000D01*
X107275000Y-61974999D01*
X106751683Y-61974999D01*
X106775000Y-61974998D01*
X106775000Y-60874000D01*
X106794685Y-60806961D01*
X106847489Y-60761206D01*
X106899000Y-60750000D01*
X109101000Y-60750000D01*
X109168039Y-60769685D01*
X109213794Y-60822489D01*
X109225000Y-60874000D01*
X109225000Y-61974999D01*
X109248308Y-61974999D01*
X109248322Y-61974998D01*
X109347607Y-61964855D01*
X109508481Y-61911547D01*
X109508492Y-61911542D01*
X109652731Y-61822573D01*
X109661959Y-61813345D01*
X109723279Y-61779856D01*
X109792971Y-61784835D01*
X109837327Y-61813339D01*
X109846956Y-61822968D01*
X109865596Y-61834465D01*
X109912321Y-61886412D01*
X109924500Y-61940004D01*
X109924500Y-62809995D01*
X109904815Y-62877034D01*
X109865600Y-62915532D01*
X109846955Y-62927032D01*
X109837324Y-62936663D01*
X109776000Y-62970146D01*
X109706308Y-62965159D01*
X109661965Y-62936660D01*
X109652732Y-62927427D01*
X109652728Y-62927424D01*
X109508492Y-62838457D01*
X109508481Y-62838452D01*
X109347606Y-62785144D01*
X109248322Y-62775000D01*
X109225000Y-62775000D01*
X109225000Y-64724999D01*
X109248308Y-64724999D01*
X109248322Y-64724998D01*
X109347607Y-64714855D01*
X109508481Y-64661547D01*
X109508492Y-64661542D01*
X109652731Y-64572573D01*
X109661959Y-64563345D01*
X109723279Y-64529856D01*
X109792971Y-64534835D01*
X109837327Y-64563339D01*
X109846955Y-64572967D01*
X109846959Y-64572970D01*
X109991294Y-64661998D01*
X109991297Y-64661999D01*
X109991303Y-64662003D01*
X110152292Y-64715349D01*
X110251655Y-64725500D01*
X110798344Y-64725499D01*
X110798352Y-64725498D01*
X110798355Y-64725498D01*
X110852760Y-64719940D01*
X110897708Y-64715349D01*
X111058697Y-64662003D01*
X111203044Y-64572968D01*
X111322968Y-64453044D01*
X111412003Y-64308697D01*
X111465349Y-64147708D01*
X111475500Y-64048345D01*
X111475499Y-63451656D01*
X111468160Y-63379815D01*
X111465349Y-63352292D01*
X111465348Y-63352289D01*
X111450444Y-63307312D01*
X111412003Y-63191303D01*
X111411999Y-63191297D01*
X111411998Y-63191294D01*
X111322970Y-63046959D01*
X111322969Y-63046958D01*
X111322968Y-63046956D01*
X111203044Y-62927032D01*
X111184399Y-62915531D01*
X111137677Y-62863582D01*
X111125500Y-62809995D01*
X111125500Y-61940004D01*
X111145185Y-61872965D01*
X111184403Y-61834465D01*
X111203044Y-61822968D01*
X111322968Y-61703044D01*
X111412003Y-61558697D01*
X111465349Y-61397708D01*
X111475500Y-61298345D01*
X111475499Y-60701656D01*
X111470933Y-60656961D01*
X111465349Y-60602292D01*
X111465348Y-60602289D01*
X111464755Y-60600498D01*
X111412003Y-60441303D01*
X111411999Y-60441297D01*
X111411998Y-60441294D01*
X111322970Y-60296959D01*
X111322967Y-60296955D01*
X111203044Y-60177032D01*
X111203040Y-60177029D01*
X111058705Y-60088001D01*
X111058699Y-60087998D01*
X111058697Y-60087997D01*
X111013617Y-60073059D01*
X110897709Y-60034651D01*
X110798352Y-60024500D01*
X110798345Y-60024500D01*
X110450097Y-60024500D01*
X110383058Y-60004815D01*
X110362416Y-59988181D01*
X109762590Y-59388355D01*
X109762588Y-59388352D01*
X109643717Y-59269481D01*
X109643712Y-59269477D01*
X109534139Y-59206216D01*
X109534137Y-59206215D01*
X109506786Y-59190423D01*
X109506787Y-59190423D01*
X109445693Y-59174053D01*
X109354057Y-59149499D01*
X109195943Y-59149499D01*
X109188347Y-59149499D01*
X109188331Y-59149500D01*
X103086670Y-59149500D01*
X103086654Y-59149499D01*
X103079058Y-59149499D01*
X102920943Y-59149499D01*
X102844579Y-59169961D01*
X102768214Y-59190423D01*
X102768209Y-59190426D01*
X102631290Y-59269475D01*
X102631282Y-59269481D01*
X102587679Y-59313084D01*
X102526356Y-59346568D01*
X102456664Y-59341583D01*
X102412318Y-59313083D01*
X100487590Y-57388355D01*
X100487588Y-57388352D01*
X100368717Y-57269481D01*
X100368716Y-57269480D01*
X100281904Y-57219360D01*
X100281904Y-57219359D01*
X100281900Y-57219358D01*
X100231785Y-57190423D01*
X100079057Y-57149499D01*
X99920943Y-57149499D01*
X99913347Y-57149499D01*
X99913331Y-57149500D01*
X96146647Y-57149500D01*
X95988533Y-57149500D01*
X95835805Y-57190423D01*
X95835804Y-57190423D01*
X95835802Y-57190424D01*
X95835799Y-57190425D01*
X95785686Y-57219359D01*
X95785685Y-57219360D01*
X95742279Y-57244420D01*
X95698875Y-57269479D01*
X95698872Y-57269481D01*
X95405173Y-57563181D01*
X95343850Y-57596666D01*
X95317492Y-57599500D01*
X95137272Y-57599500D01*
X95050393Y-57610938D01*
X95024764Y-57614313D01*
X95024762Y-57614313D01*
X95016708Y-57615374D01*
X95016316Y-57612399D01*
X94983684Y-57612399D01*
X94983292Y-57615374D01*
X94975237Y-57614313D01*
X94975236Y-57614313D01*
X94946271Y-57610499D01*
X94862727Y-57599500D01*
X94862720Y-57599500D01*
X94637280Y-57599500D01*
X94637272Y-57599500D01*
X94541792Y-57612071D01*
X94524764Y-57614313D01*
X94524763Y-57614313D01*
X94516707Y-57615374D01*
X94516472Y-57613595D01*
X94482729Y-57615804D01*
X94400000Y-57604911D01*
X94397845Y-57606801D01*
X94380315Y-57666502D01*
X94351487Y-57697838D01*
X94325486Y-57717789D01*
X94260319Y-57742984D01*
X94191874Y-57728946D01*
X94174515Y-57717790D01*
X94148512Y-57697838D01*
X94107310Y-57641410D01*
X94101120Y-57605894D01*
X94099999Y-57604911D01*
X94017270Y-57615804D01*
X93983527Y-57613593D01*
X93983293Y-57615374D01*
X93975236Y-57614313D01*
X93955451Y-57611708D01*
X93862727Y-57599500D01*
X93862720Y-57599500D01*
X93637280Y-57599500D01*
X93637272Y-57599500D01*
X93550393Y-57610938D01*
X93524764Y-57614313D01*
X93524762Y-57614313D01*
X93516708Y-57615374D01*
X93516316Y-57612399D01*
X93483684Y-57612399D01*
X93483292Y-57615374D01*
X93475237Y-57614313D01*
X93475236Y-57614313D01*
X93446271Y-57610499D01*
X93362727Y-57599500D01*
X93362720Y-57599500D01*
X93137280Y-57599500D01*
X93137272Y-57599500D01*
X93024764Y-57614313D01*
X93024763Y-57614313D01*
X92884770Y-57672300D01*
X92884767Y-57672301D01*
X92884767Y-57672302D01*
X92792653Y-57742984D01*
X92764549Y-57764549D01*
X92672300Y-57884770D01*
X92614313Y-58024763D01*
X92614313Y-58024764D01*
X92599500Y-58137272D01*
X92599500Y-59475500D01*
X92579815Y-59542539D01*
X92527011Y-59588294D01*
X92475500Y-59599500D01*
X91137272Y-59599500D01*
X91024764Y-59614313D01*
X91024763Y-59614313D01*
X90983793Y-59631284D01*
X90966455Y-59638466D01*
X90962604Y-59640061D01*
X90915151Y-59649500D01*
X83224170Y-59649500D01*
X83224154Y-59649499D01*
X83216558Y-59649499D01*
X83058443Y-59649499D01*
X83050316Y-59649499D01*
X83050316Y-59647652D01*
X82991423Y-59638466D01*
X82939168Y-59592084D01*
X82924204Y-59553495D01*
X82923868Y-59553593D01*
X82922750Y-59549745D01*
X82922292Y-59548564D01*
X82922097Y-59547499D01*
X82876283Y-59389806D01*
X82876282Y-59389803D01*
X82792685Y-59248447D01*
X82792678Y-59248438D01*
X82676561Y-59132321D01*
X82676552Y-59132314D01*
X82535196Y-59048717D01*
X82535193Y-59048716D01*
X82377495Y-59002900D01*
X82377489Y-59002899D01*
X82340649Y-59000000D01*
X81937500Y-59000000D01*
X81937500Y-60549403D01*
X81917815Y-60616442D01*
X81901181Y-60637084D01*
X81675084Y-60863181D01*
X81613761Y-60896666D01*
X81587403Y-60899500D01*
X81174500Y-60899500D01*
X81107461Y-60879815D01*
X81061706Y-60827011D01*
X81050500Y-60775500D01*
X81050500Y-60724000D01*
X81070185Y-60656961D01*
X81122989Y-60611206D01*
X81174500Y-60600000D01*
X81437500Y-60600000D01*
X81437500Y-60050000D01*
X80781815Y-60050000D01*
X80718694Y-60032732D01*
X80704774Y-60024500D01*
X80660398Y-59998256D01*
X80660397Y-59998255D01*
X80660396Y-59998255D01*
X80660393Y-59998254D01*
X80502573Y-59952402D01*
X80502567Y-59952401D01*
X80465701Y-59949500D01*
X80465694Y-59949500D01*
X79912597Y-59949500D01*
X79845558Y-59929815D01*
X79824916Y-59913181D01*
X79550090Y-59638355D01*
X79550088Y-59638352D01*
X79461734Y-59549998D01*
X80452704Y-59549998D01*
X80452705Y-59550000D01*
X81437500Y-59550000D01*
X81437500Y-59000000D01*
X81034350Y-59000000D01*
X80997510Y-59002899D01*
X80997504Y-59002900D01*
X80839806Y-59048716D01*
X80839803Y-59048717D01*
X80698447Y-59132314D01*
X80698438Y-59132321D01*
X80582321Y-59248438D01*
X80582314Y-59248447D01*
X80498718Y-59389801D01*
X80452899Y-59547513D01*
X80452704Y-59549998D01*
X79461734Y-59549998D01*
X79431217Y-59519481D01*
X79431209Y-59519475D01*
X79336217Y-59464632D01*
X79336215Y-59464631D01*
X79294290Y-59440425D01*
X79294289Y-59440424D01*
X79281763Y-59437067D01*
X79141557Y-59399499D01*
X78983443Y-59399499D01*
X78975847Y-59399499D01*
X78975831Y-59399500D01*
X77474500Y-59399500D01*
X77407461Y-59379815D01*
X77361706Y-59327011D01*
X77350500Y-59275500D01*
X77350499Y-58352129D01*
X77350498Y-58352123D01*
X77350497Y-58352116D01*
X77344091Y-58292517D01*
X77293796Y-58157669D01*
X77293795Y-58157668D01*
X77293793Y-58157664D01*
X77207547Y-58042455D01*
X77207544Y-58042452D01*
X77092335Y-57956206D01*
X77092328Y-57956202D01*
X76957482Y-57905908D01*
X76957483Y-57905908D01*
X76897883Y-57899501D01*
X76897881Y-57899500D01*
X76897873Y-57899500D01*
X76897864Y-57899500D01*
X75102129Y-57899500D01*
X75102123Y-57899501D01*
X75042516Y-57905908D01*
X74907671Y-57956202D01*
X74907664Y-57956206D01*
X74792455Y-58042452D01*
X74792452Y-58042455D01*
X74706206Y-58157664D01*
X74706202Y-58157671D01*
X74655908Y-58292517D01*
X74649675Y-58350500D01*
X74649501Y-58352123D01*
X74649500Y-58352135D01*
X74649500Y-60147870D01*
X74649501Y-60147876D01*
X74655908Y-60207483D01*
X74706202Y-60342328D01*
X74706206Y-60342335D01*
X74792452Y-60457544D01*
X74792455Y-60457547D01*
X74907664Y-60543793D01*
X74907671Y-60543797D01*
X75042517Y-60594091D01*
X75042516Y-60594091D01*
X75049444Y-60594835D01*
X75102127Y-60600500D01*
X76663330Y-60600499D01*
X76663348Y-60600500D01*
X76670943Y-60600500D01*
X78450500Y-60600500D01*
X78517539Y-60620185D01*
X78563294Y-60672989D01*
X78574500Y-60724500D01*
X78574500Y-60965701D01*
X78577401Y-61002567D01*
X78577402Y-61002573D01*
X78623254Y-61160393D01*
X78623255Y-61160396D01*
X78706917Y-61301862D01*
X78706923Y-61301870D01*
X78823129Y-61418076D01*
X78823133Y-61418079D01*
X78823135Y-61418081D01*
X78964602Y-61501744D01*
X79006224Y-61513836D01*
X79122426Y-61547597D01*
X79122429Y-61547597D01*
X79122431Y-61547598D01*
X79159306Y-61550500D01*
X80325500Y-61550500D01*
X80392539Y-61570185D01*
X80438294Y-61622989D01*
X80449500Y-61674500D01*
X80449500Y-61915701D01*
X80452401Y-61952567D01*
X80452402Y-61952573D01*
X80498254Y-62110393D01*
X80498255Y-62110396D01*
X80498256Y-62110398D01*
X80528502Y-62161542D01*
X80581917Y-62251862D01*
X80581923Y-62251870D01*
X80698129Y-62368076D01*
X80698133Y-62368079D01*
X80698135Y-62368081D01*
X80839602Y-62451744D01*
X80881224Y-62463836D01*
X80997426Y-62497597D01*
X80997429Y-62497597D01*
X80997431Y-62497598D01*
X81034306Y-62500500D01*
X81034314Y-62500500D01*
X82340686Y-62500500D01*
X82340694Y-62500500D01*
X82377569Y-62497598D01*
X82377571Y-62497597D01*
X82377573Y-62497597D01*
X82448429Y-62477011D01*
X82535398Y-62451744D01*
X82676865Y-62368081D01*
X82793081Y-62251865D01*
X82876744Y-62110398D01*
X82913554Y-61983698D01*
X82922597Y-61952573D01*
X82922598Y-61952567D01*
X82922782Y-61950234D01*
X82925500Y-61915694D01*
X82925500Y-61548322D01*
X84025001Y-61548322D01*
X84035144Y-61647607D01*
X84088452Y-61808481D01*
X84088457Y-61808492D01*
X84177424Y-61952728D01*
X84177427Y-61952732D01*
X84297267Y-62072572D01*
X84297271Y-62072575D01*
X84441507Y-62161542D01*
X84441518Y-62161547D01*
X84602393Y-62214855D01*
X84701683Y-62224999D01*
X84725000Y-62224998D01*
X84725000Y-61500000D01*
X84025001Y-61500000D01*
X84025001Y-61548322D01*
X82925500Y-61548322D01*
X82925500Y-61484306D01*
X82922598Y-61447431D01*
X82913050Y-61414567D01*
X82913249Y-61344697D01*
X82944445Y-61292290D01*
X83349917Y-60886819D01*
X83411240Y-60853334D01*
X83437598Y-60850500D01*
X83901000Y-60850500D01*
X83968039Y-60870185D01*
X84013794Y-60922989D01*
X84025000Y-60974500D01*
X84025000Y-61000000D01*
X85101000Y-61000000D01*
X85168039Y-61019685D01*
X85213794Y-61072489D01*
X85225000Y-61124000D01*
X85225000Y-62224999D01*
X85248308Y-62224999D01*
X85248322Y-62224998D01*
X85347607Y-62214855D01*
X85508481Y-62161547D01*
X85508492Y-62161542D01*
X85652731Y-62072573D01*
X85661959Y-62063345D01*
X85723279Y-62029856D01*
X85792971Y-62034835D01*
X85837327Y-62063339D01*
X85846956Y-62072968D01*
X85865596Y-62084465D01*
X85912321Y-62136412D01*
X85924500Y-62190004D01*
X85924500Y-62531534D01*
X85904815Y-62598573D01*
X85874812Y-62630800D01*
X85823895Y-62668917D01*
X85758431Y-62693335D01*
X85690158Y-62678484D01*
X85675272Y-62668918D01*
X85592088Y-62606646D01*
X85592086Y-62606645D01*
X85457379Y-62556403D01*
X85457372Y-62556401D01*
X85397844Y-62550000D01*
X84900000Y-62550000D01*
X84900000Y-63776000D01*
X84880315Y-63843039D01*
X84827511Y-63888794D01*
X84776000Y-63900000D01*
X83450000Y-63900000D01*
X83450000Y-64297844D01*
X83456401Y-64357372D01*
X83456403Y-64357380D01*
X83493168Y-64455952D01*
X83498152Y-64525644D01*
X83493168Y-64542617D01*
X83455909Y-64642514D01*
X83454126Y-64650062D01*
X83451853Y-64649525D01*
X83429571Y-64703312D01*
X83372177Y-64743157D01*
X83333024Y-64749500D01*
X83267106Y-64749500D01*
X83200067Y-64729815D01*
X83161568Y-64690597D01*
X83072970Y-64546959D01*
X83072967Y-64546955D01*
X82953044Y-64427032D01*
X82953040Y-64427029D01*
X82808705Y-64338001D01*
X82808699Y-64337998D01*
X82808697Y-64337997D01*
X82720266Y-64308694D01*
X82647709Y-64284651D01*
X82548346Y-64274500D01*
X82001662Y-64274500D01*
X82001644Y-64274501D01*
X81902292Y-64284650D01*
X81902289Y-64284651D01*
X81741305Y-64337996D01*
X81741294Y-64338001D01*
X81596959Y-64427029D01*
X81596953Y-64427033D01*
X81587324Y-64436663D01*
X81526000Y-64470146D01*
X81456308Y-64465159D01*
X81411965Y-64436660D01*
X81402732Y-64427427D01*
X81402728Y-64427424D01*
X81258492Y-64338457D01*
X81258481Y-64338452D01*
X81097606Y-64285144D01*
X80998322Y-64275000D01*
X80975000Y-64275000D01*
X80975000Y-66224999D01*
X80998308Y-66224999D01*
X80998322Y-66224998D01*
X81097607Y-66214855D01*
X81258481Y-66161547D01*
X81258492Y-66161542D01*
X81402731Y-66072573D01*
X81411959Y-66063345D01*
X81473279Y-66029856D01*
X81542971Y-66034835D01*
X81587327Y-66063339D01*
X81596955Y-66072967D01*
X81596959Y-66072970D01*
X81741294Y-66161998D01*
X81741297Y-66161999D01*
X81741303Y-66162003D01*
X81902292Y-66215349D01*
X82001655Y-66225500D01*
X82548344Y-66225499D01*
X82548352Y-66225498D01*
X82548355Y-66225498D01*
X82602760Y-66219940D01*
X82647708Y-66215349D01*
X82808697Y-66162003D01*
X82953044Y-66072968D01*
X83039193Y-65986819D01*
X83100516Y-65953334D01*
X83126874Y-65950500D01*
X83333023Y-65950500D01*
X83400062Y-65970185D01*
X83445817Y-66022989D01*
X83453266Y-66050134D01*
X83454124Y-66049932D01*
X83455907Y-66057479D01*
X83506202Y-66192328D01*
X83506206Y-66192335D01*
X83592452Y-66307544D01*
X83592455Y-66307547D01*
X83707664Y-66393793D01*
X83707671Y-66393797D01*
X83842517Y-66444091D01*
X83842516Y-66444091D01*
X83849444Y-66444835D01*
X83902127Y-66450500D01*
X84849902Y-66450499D01*
X84916941Y-66470183D01*
X84937583Y-66486818D01*
X86315139Y-67864374D01*
X86315149Y-67864385D01*
X86319479Y-67868715D01*
X86319480Y-67868716D01*
X86431284Y-67980520D01*
X86506066Y-68023695D01*
X86568215Y-68059577D01*
X86720943Y-68100500D01*
X86879057Y-68100500D01*
X91270741Y-68100500D01*
X91270757Y-68100501D01*
X91278353Y-68100501D01*
X91436464Y-68100501D01*
X91436467Y-68100501D01*
X91589195Y-68059577D01*
X91651344Y-68023695D01*
X91726126Y-67980520D01*
X91837930Y-67868716D01*
X91837930Y-67868714D01*
X91848134Y-67858511D01*
X91848137Y-67858506D01*
X92387820Y-67318824D01*
X92449142Y-67285340D01*
X92518834Y-67290324D01*
X92574767Y-67332196D01*
X92599184Y-67397660D01*
X92599500Y-67406506D01*
X92599500Y-67862727D01*
X92614313Y-67975235D01*
X92614313Y-67975236D01*
X92666199Y-68100501D01*
X92672302Y-68115233D01*
X92764549Y-68235451D01*
X92884767Y-68327698D01*
X93024764Y-68385687D01*
X93041687Y-68387915D01*
X93105580Y-68416179D01*
X93144052Y-68474502D01*
X93149500Y-68510853D01*
X93149500Y-68542060D01*
X93129815Y-68609099D01*
X93113181Y-68629741D01*
X92995184Y-68747737D01*
X92995182Y-68747740D01*
X92895992Y-68905598D01*
X92843657Y-68951889D01*
X92774604Y-68962536D01*
X92710756Y-68934161D01*
X92703318Y-68927306D01*
X92703044Y-68927032D01*
X92703040Y-68927029D01*
X92558705Y-68838001D01*
X92558699Y-68837998D01*
X92558697Y-68837997D01*
X92450451Y-68802128D01*
X92397709Y-68784651D01*
X92298346Y-68774500D01*
X91751662Y-68774500D01*
X91751644Y-68774501D01*
X91652292Y-68784650D01*
X91652289Y-68784651D01*
X91491305Y-68837996D01*
X91491294Y-68838001D01*
X91346959Y-68927029D01*
X91346955Y-68927032D01*
X91337681Y-68936307D01*
X91276358Y-68969792D01*
X91206666Y-68964808D01*
X91162319Y-68936307D01*
X91153044Y-68927032D01*
X91153040Y-68927029D01*
X91008705Y-68838001D01*
X91008699Y-68837998D01*
X91008697Y-68837997D01*
X90900451Y-68802128D01*
X90847709Y-68784651D01*
X90748346Y-68774500D01*
X90201662Y-68774500D01*
X90201644Y-68774501D01*
X90102292Y-68784650D01*
X90102289Y-68784651D01*
X89941305Y-68837996D01*
X89941294Y-68838001D01*
X89796959Y-68927029D01*
X89796955Y-68927032D01*
X89677031Y-69046956D01*
X89650113Y-69090598D01*
X89598165Y-69137322D01*
X89544575Y-69149500D01*
X82800097Y-69149500D01*
X82733058Y-69129815D01*
X82712416Y-69113181D01*
X79147557Y-65548322D01*
X79775001Y-65548322D01*
X79785144Y-65647607D01*
X79838452Y-65808481D01*
X79838457Y-65808492D01*
X79927424Y-65952728D01*
X79927427Y-65952732D01*
X80047267Y-66072572D01*
X80047271Y-66072575D01*
X80191507Y-66161542D01*
X80191518Y-66161547D01*
X80352393Y-66214855D01*
X80451683Y-66224999D01*
X80475000Y-66224998D01*
X80475000Y-65500000D01*
X79775001Y-65500000D01*
X79775001Y-65548322D01*
X79147557Y-65548322D01*
X78550912Y-64951677D01*
X79775000Y-64951677D01*
X79775000Y-65000000D01*
X80475000Y-65000000D01*
X80475000Y-64274999D01*
X80451693Y-64275000D01*
X80451674Y-64275001D01*
X80352392Y-64285144D01*
X80191518Y-64338452D01*
X80191507Y-64338457D01*
X80047271Y-64427424D01*
X80047267Y-64427427D01*
X79927427Y-64547267D01*
X79927424Y-64547271D01*
X79838457Y-64691507D01*
X79838452Y-64691518D01*
X79785144Y-64852393D01*
X79775000Y-64951677D01*
X78550912Y-64951677D01*
X77386818Y-63787583D01*
X77353333Y-63726260D01*
X77350499Y-63699902D01*
X77350499Y-63002155D01*
X83450000Y-63002155D01*
X83450000Y-63400000D01*
X84400000Y-63400000D01*
X84400000Y-62550000D01*
X83902155Y-62550000D01*
X83842627Y-62556401D01*
X83842620Y-62556403D01*
X83707913Y-62606645D01*
X83707906Y-62606649D01*
X83592812Y-62692809D01*
X83592809Y-62692812D01*
X83506649Y-62807906D01*
X83506645Y-62807913D01*
X83456403Y-62942620D01*
X83456401Y-62942627D01*
X83450000Y-63002155D01*
X77350499Y-63002155D01*
X77350499Y-62102129D01*
X77350498Y-62102123D01*
X77350497Y-62102116D01*
X77344091Y-62042517D01*
X77340480Y-62032836D01*
X77293797Y-61907671D01*
X77293793Y-61907664D01*
X77207547Y-61792455D01*
X77207544Y-61792452D01*
X77092335Y-61706206D01*
X77092328Y-61706202D01*
X76957482Y-61655908D01*
X76957483Y-61655908D01*
X76897883Y-61649501D01*
X76897881Y-61649500D01*
X76897873Y-61649500D01*
X76897864Y-61649500D01*
X75102129Y-61649500D01*
X75102123Y-61649501D01*
X75042516Y-61655908D01*
X74907671Y-61706202D01*
X74907664Y-61706206D01*
X74792455Y-61792452D01*
X74792452Y-61792455D01*
X74706206Y-61907664D01*
X74706202Y-61907671D01*
X74655908Y-62042517D01*
X74651399Y-62084465D01*
X74649501Y-62102123D01*
X74649500Y-62102135D01*
X74649500Y-63897870D01*
X74649501Y-63897876D01*
X74655908Y-63957483D01*
X74706202Y-64092328D01*
X74706206Y-64092335D01*
X74792452Y-64207544D01*
X74792455Y-64207547D01*
X74907664Y-64293793D01*
X74907671Y-64293797D01*
X75042517Y-64344091D01*
X75042516Y-64344091D01*
X75049444Y-64344835D01*
X75102127Y-64350500D01*
X76199902Y-64350499D01*
X76266941Y-64370184D01*
X76287583Y-64386818D01*
X77111325Y-65210560D01*
X77144810Y-65271883D01*
X77139826Y-65341575D01*
X77097954Y-65397508D01*
X77032490Y-65421925D01*
X76980311Y-65414423D01*
X76957482Y-65405908D01*
X76957483Y-65405908D01*
X76897883Y-65399501D01*
X76897881Y-65399500D01*
X76897873Y-65399500D01*
X76897864Y-65399500D01*
X75102129Y-65399500D01*
X75102123Y-65399501D01*
X75042516Y-65405908D01*
X74907671Y-65456202D01*
X74907664Y-65456206D01*
X74792455Y-65542452D01*
X74792452Y-65542455D01*
X74706206Y-65657664D01*
X74706202Y-65657671D01*
X74655908Y-65792517D01*
X74654191Y-65808492D01*
X74649501Y-65852123D01*
X74649500Y-65852135D01*
X74649500Y-67647870D01*
X74649501Y-67647876D01*
X74655908Y-67707483D01*
X74706202Y-67842328D01*
X74706206Y-67842335D01*
X74792452Y-67957544D01*
X74792455Y-67957547D01*
X74907664Y-68043793D01*
X74907671Y-68043797D01*
X75042517Y-68094091D01*
X75042516Y-68094091D01*
X75049444Y-68094835D01*
X75102127Y-68100500D01*
X76199902Y-68100499D01*
X76266941Y-68120184D01*
X76287583Y-68136818D01*
X77111325Y-68960560D01*
X77144810Y-69021883D01*
X77139826Y-69091575D01*
X77097954Y-69147508D01*
X77032490Y-69171925D01*
X76980311Y-69164423D01*
X76957482Y-69155908D01*
X76957483Y-69155908D01*
X76897883Y-69149501D01*
X76897881Y-69149500D01*
X76897873Y-69149500D01*
X76897864Y-69149500D01*
X75102129Y-69149500D01*
X75102123Y-69149501D01*
X75042516Y-69155908D01*
X74907671Y-69206202D01*
X74907664Y-69206206D01*
X74792455Y-69292452D01*
X74792452Y-69292455D01*
X74706206Y-69407664D01*
X74706202Y-69407671D01*
X74655908Y-69542517D01*
X74651705Y-69581616D01*
X74649501Y-69602123D01*
X74649500Y-69602135D01*
X74649500Y-71397870D01*
X74649501Y-71397876D01*
X74655908Y-71457483D01*
X74706202Y-71592328D01*
X74706206Y-71592335D01*
X74792452Y-71707544D01*
X74792455Y-71707547D01*
X74907664Y-71793793D01*
X74907671Y-71793797D01*
X75042517Y-71844091D01*
X75042516Y-71844091D01*
X75049444Y-71844835D01*
X75102127Y-71850500D01*
X76449902Y-71850499D01*
X76516941Y-71870184D01*
X76537583Y-71886818D01*
X77515139Y-72864374D01*
X77515149Y-72864385D01*
X77519479Y-72868715D01*
X77519480Y-72868716D01*
X77631284Y-72980520D01*
X77705235Y-73023215D01*
X77746900Y-73047271D01*
X77768215Y-73059577D01*
X77920943Y-73100500D01*
X78079057Y-73100500D01*
X79345887Y-73100500D01*
X79412926Y-73120185D01*
X79458681Y-73172989D01*
X79462295Y-73182192D01*
X79462999Y-73183702D01*
X79552031Y-73328043D01*
X79671955Y-73447967D01*
X79671959Y-73447970D01*
X79816294Y-73536998D01*
X79816297Y-73536999D01*
X79816303Y-73537003D01*
X79977292Y-73590349D01*
X80076655Y-73600500D01*
X80623344Y-73600499D01*
X80623352Y-73600498D01*
X80623355Y-73600498D01*
X80677760Y-73594940D01*
X80722708Y-73590349D01*
X80883697Y-73537003D01*
X81028044Y-73447968D01*
X81147968Y-73328044D01*
X81237003Y-73183697D01*
X81290349Y-73022708D01*
X81300500Y-72923345D01*
X81300499Y-72076656D01*
X81300410Y-72075789D01*
X81290349Y-71977292D01*
X81290348Y-71977289D01*
X81281471Y-71950500D01*
X81237003Y-71816303D01*
X81236999Y-71816297D01*
X81236998Y-71816294D01*
X81147970Y-71671959D01*
X81147967Y-71671955D01*
X81038193Y-71562181D01*
X81004708Y-71500858D01*
X81009692Y-71431166D01*
X81051564Y-71375233D01*
X81117028Y-71350816D01*
X81125874Y-71350500D01*
X82874126Y-71350500D01*
X82941165Y-71370185D01*
X82986920Y-71422989D01*
X82996864Y-71492147D01*
X82967839Y-71555703D01*
X82961807Y-71562181D01*
X82852032Y-71671955D01*
X82852029Y-71671959D01*
X82763001Y-71816294D01*
X82762996Y-71816305D01*
X82709651Y-71977290D01*
X82699500Y-72076647D01*
X82699500Y-72923337D01*
X82699501Y-72923355D01*
X82709650Y-73022707D01*
X82709651Y-73022710D01*
X82762996Y-73183694D01*
X82763001Y-73183705D01*
X82852029Y-73328040D01*
X82852032Y-73328044D01*
X82971955Y-73447967D01*
X82971959Y-73447970D01*
X83116294Y-73536998D01*
X83116297Y-73536999D01*
X83116303Y-73537003D01*
X83277292Y-73590349D01*
X83376655Y-73600500D01*
X83923344Y-73600499D01*
X83923352Y-73600498D01*
X83923355Y-73600498D01*
X83977760Y-73594940D01*
X84022708Y-73590349D01*
X84183697Y-73537003D01*
X84328044Y-73447968D01*
X84447968Y-73328044D01*
X84534789Y-73187287D01*
X84537000Y-73183702D01*
X84537000Y-73183701D01*
X84537003Y-73183697D01*
X84537004Y-73183692D01*
X84540053Y-73177155D01*
X84541661Y-73177904D01*
X84576184Y-73128047D01*
X84640701Y-73101227D01*
X84654113Y-73100500D01*
X84917588Y-73100500D01*
X84984627Y-73120185D01*
X84994903Y-73127555D01*
X84997736Y-73129814D01*
X84997738Y-73129816D01*
X85150478Y-73225789D01*
X85320745Y-73285368D01*
X85320750Y-73285369D01*
X85499996Y-73305565D01*
X85500000Y-73305565D01*
X85500004Y-73305565D01*
X85679249Y-73285369D01*
X85679252Y-73285368D01*
X85679255Y-73285368D01*
X85849522Y-73225789D01*
X86002262Y-73129816D01*
X86129816Y-73002262D01*
X86225789Y-72849522D01*
X86285368Y-72679255D01*
X86285369Y-72679249D01*
X86305565Y-72500003D01*
X86305565Y-72499996D01*
X86285369Y-72320750D01*
X86285368Y-72320745D01*
X86225788Y-72150476D01*
X86179407Y-72076662D01*
X86129816Y-71997738D01*
X86002262Y-71870184D01*
X85970932Y-71850498D01*
X85849523Y-71774211D01*
X85679254Y-71714631D01*
X85679249Y-71714630D01*
X85500004Y-71694435D01*
X85499996Y-71694435D01*
X85320750Y-71714630D01*
X85320745Y-71714631D01*
X85150476Y-71774211D01*
X84997738Y-71870184D01*
X84994903Y-71872445D01*
X84992724Y-71873334D01*
X84991842Y-71873889D01*
X84991744Y-71873734D01*
X84930217Y-71898855D01*
X84917588Y-71899500D01*
X84654113Y-71899500D01*
X84587074Y-71879815D01*
X84541319Y-71827011D01*
X84537704Y-71817807D01*
X84537000Y-71816297D01*
X84447968Y-71671956D01*
X84338193Y-71562181D01*
X84304708Y-71500858D01*
X84309692Y-71431166D01*
X84351564Y-71375233D01*
X84417028Y-71350816D01*
X84425874Y-71350500D01*
X86699903Y-71350500D01*
X86766942Y-71370185D01*
X86787583Y-71386818D01*
X87631284Y-72230520D01*
X87631286Y-72230521D01*
X87631290Y-72230524D01*
X87768209Y-72309573D01*
X87768212Y-72309575D01*
X87768216Y-72309577D01*
X87920943Y-72350501D01*
X87920945Y-72350501D01*
X88086654Y-72350501D01*
X88086670Y-72350500D01*
X89544575Y-72350500D01*
X89611614Y-72370185D01*
X89650113Y-72409402D01*
X89677031Y-72453043D01*
X89796955Y-72572967D01*
X89796959Y-72572970D01*
X89912864Y-72644462D01*
X89959589Y-72696410D01*
X89970810Y-72765372D01*
X89942967Y-72829454D01*
X89912864Y-72855538D01*
X89796959Y-72927029D01*
X89796955Y-72927032D01*
X89677032Y-73046955D01*
X89677029Y-73046959D01*
X89588001Y-73191294D01*
X89587996Y-73191305D01*
X89534651Y-73352290D01*
X89524500Y-73451647D01*
X89524500Y-73525500D01*
X89504815Y-73592539D01*
X89452011Y-73638294D01*
X89400500Y-73649500D01*
X89332412Y-73649500D01*
X89265373Y-73629815D01*
X89255097Y-73622445D01*
X89252263Y-73620185D01*
X89252262Y-73620184D01*
X89195496Y-73584515D01*
X89099523Y-73524211D01*
X88929254Y-73464631D01*
X88929249Y-73464630D01*
X88750004Y-73444435D01*
X88749996Y-73444435D01*
X88570750Y-73464630D01*
X88570745Y-73464631D01*
X88400476Y-73524211D01*
X88247737Y-73620184D01*
X88120184Y-73747737D01*
X88024211Y-73900476D01*
X87964631Y-74070745D01*
X87964630Y-74070750D01*
X87944435Y-74249996D01*
X87944435Y-74250003D01*
X87964630Y-74429249D01*
X87964631Y-74429254D01*
X88024211Y-74599523D01*
X88118763Y-74750000D01*
X88120184Y-74752262D01*
X88247738Y-74879816D01*
X88400478Y-74975789D01*
X88570745Y-75035368D01*
X88570750Y-75035369D01*
X88749996Y-75055565D01*
X88750000Y-75055565D01*
X88750004Y-75055565D01*
X88929249Y-75035369D01*
X88929252Y-75035368D01*
X88929255Y-75035368D01*
X89099522Y-74975789D01*
X89252262Y-74879816D01*
X89252267Y-74879810D01*
X89255097Y-74877555D01*
X89257275Y-74876665D01*
X89258158Y-74876111D01*
X89258255Y-74876265D01*
X89319783Y-74851145D01*
X89332412Y-74850500D01*
X89888331Y-74850500D01*
X89888347Y-74850501D01*
X89895943Y-74850501D01*
X90054054Y-74850501D01*
X90054057Y-74850501D01*
X90206785Y-74809577D01*
X90256904Y-74780639D01*
X90323641Y-74742109D01*
X90385638Y-74725499D01*
X90748338Y-74725499D01*
X90748344Y-74725499D01*
X90748352Y-74725498D01*
X90748355Y-74725498D01*
X90802760Y-74719940D01*
X90847708Y-74715349D01*
X91008697Y-74662003D01*
X91153044Y-74572968D01*
X91162668Y-74563343D01*
X91223987Y-74529856D01*
X91293679Y-74534835D01*
X91338034Y-74563339D01*
X91347267Y-74572572D01*
X91347271Y-74572575D01*
X91491507Y-74661542D01*
X91491518Y-74661547D01*
X91652393Y-74714855D01*
X91751683Y-74724999D01*
X92275000Y-74724999D01*
X92298308Y-74724999D01*
X92298322Y-74724998D01*
X92397607Y-74714855D01*
X92558481Y-74661547D01*
X92558492Y-74661542D01*
X92702728Y-74572575D01*
X92702732Y-74572572D01*
X92822572Y-74452732D01*
X92822575Y-74452728D01*
X92911542Y-74308492D01*
X92911547Y-74308481D01*
X92964855Y-74147606D01*
X92974999Y-74048322D01*
X92975000Y-74048309D01*
X92975000Y-74000000D01*
X92275000Y-74000000D01*
X92275000Y-74724999D01*
X91751683Y-74724999D01*
X91775000Y-74724998D01*
X91775000Y-73624000D01*
X91794685Y-73556961D01*
X91847489Y-73511206D01*
X91899000Y-73500000D01*
X92974999Y-73500000D01*
X92974999Y-73451692D01*
X92974998Y-73451677D01*
X92964855Y-73352392D01*
X92911547Y-73191518D01*
X92911542Y-73191507D01*
X92822575Y-73047271D01*
X92822572Y-73047267D01*
X92702732Y-72927427D01*
X92702728Y-72927424D01*
X92586659Y-72855831D01*
X92539934Y-72803883D01*
X92528713Y-72734920D01*
X92556556Y-72670838D01*
X92586652Y-72644759D01*
X92703044Y-72572968D01*
X92822968Y-72453044D01*
X92849887Y-72409402D01*
X92901835Y-72362678D01*
X92955425Y-72350500D01*
X93463331Y-72350500D01*
X93463347Y-72350501D01*
X93470943Y-72350501D01*
X93629054Y-72350501D01*
X93629057Y-72350501D01*
X93781785Y-72309577D01*
X93853424Y-72268216D01*
X93918716Y-72230520D01*
X94030520Y-72118716D01*
X94030520Y-72118714D01*
X94040724Y-72108511D01*
X94040728Y-72108506D01*
X94608506Y-71540728D01*
X94608511Y-71540724D01*
X94618714Y-71530520D01*
X94618716Y-71530520D01*
X94730520Y-71418716D01*
X94809577Y-71281784D01*
X94850500Y-71129057D01*
X94850500Y-69749097D01*
X94870185Y-69682058D01*
X94922989Y-69636303D01*
X94992147Y-69626359D01*
X95055703Y-69655384D01*
X95062181Y-69661416D01*
X97115139Y-71714374D01*
X97115149Y-71714385D01*
X97119479Y-71718715D01*
X97119480Y-71718716D01*
X97231284Y-71830520D01*
X97287856Y-71863181D01*
X97318095Y-71880639D01*
X97318097Y-71880641D01*
X97350762Y-71899500D01*
X97368215Y-71909577D01*
X97520943Y-71950501D01*
X97520946Y-71950501D01*
X97686653Y-71950501D01*
X97686669Y-71950500D01*
X100667588Y-71950500D01*
X100734627Y-71970185D01*
X100744903Y-71977555D01*
X100747736Y-71979814D01*
X100747738Y-71979816D01*
X100900478Y-72075789D01*
X101070745Y-72135368D01*
X101139384Y-72143101D01*
X101203796Y-72170166D01*
X101243352Y-72227760D01*
X101249500Y-72266321D01*
X101249500Y-72929181D01*
X101259563Y-73027683D01*
X101312450Y-73187284D01*
X101312455Y-73187295D01*
X101400716Y-73330387D01*
X101400719Y-73330391D01*
X101519608Y-73449280D01*
X101519612Y-73449283D01*
X101662704Y-73537544D01*
X101662707Y-73537545D01*
X101662713Y-73537549D01*
X101822315Y-73590436D01*
X101920826Y-73600500D01*
X101920831Y-73600500D01*
X102454169Y-73600500D01*
X102454174Y-73600500D01*
X102552685Y-73590436D01*
X102712287Y-73537549D01*
X102855391Y-73449281D01*
X102974281Y-73330391D01*
X103062549Y-73187287D01*
X103115436Y-73027685D01*
X103125500Y-72929174D01*
X103125500Y-72070826D01*
X103115436Y-71972315D01*
X103062549Y-71812713D01*
X103023246Y-71748993D01*
X103004806Y-71681604D01*
X103025728Y-71614940D01*
X103055435Y-71586574D01*
X103054279Y-71585099D01*
X103060179Y-71580475D01*
X103060185Y-71580472D01*
X103162319Y-71478338D01*
X103223642Y-71444853D01*
X103293334Y-71449837D01*
X103337681Y-71478338D01*
X103439815Y-71580472D01*
X103445724Y-71585102D01*
X103444034Y-71587257D01*
X103482537Y-71629280D01*
X103494394Y-71698136D01*
X103476753Y-71748995D01*
X103437452Y-71812710D01*
X103437450Y-71812715D01*
X103414942Y-71880639D01*
X103384564Y-71972315D01*
X103384564Y-71972316D01*
X103384563Y-71972316D01*
X103374500Y-72070818D01*
X103374500Y-72929181D01*
X103384563Y-73027683D01*
X103437450Y-73187284D01*
X103437455Y-73187295D01*
X103525716Y-73330387D01*
X103525719Y-73330391D01*
X103644608Y-73449280D01*
X103644612Y-73449283D01*
X103787704Y-73537544D01*
X103787707Y-73537545D01*
X103787713Y-73537549D01*
X103947315Y-73590436D01*
X104045826Y-73600500D01*
X104045831Y-73600500D01*
X104579169Y-73600500D01*
X104579174Y-73600500D01*
X104677685Y-73590436D01*
X104837287Y-73537549D01*
X104980391Y-73449281D01*
X105099281Y-73330391D01*
X105187549Y-73187287D01*
X105188142Y-73185494D01*
X105188880Y-73184428D01*
X105190599Y-73180744D01*
X105191228Y-73181037D01*
X105227915Y-73128051D01*
X105292430Y-73101228D01*
X105305848Y-73100500D01*
X105913331Y-73100500D01*
X105913347Y-73100501D01*
X105920943Y-73100501D01*
X106079054Y-73100501D01*
X106079057Y-73100501D01*
X106231785Y-73059577D01*
X106294765Y-73023215D01*
X106368716Y-72980520D01*
X106402819Y-72946417D01*
X106464142Y-72912932D01*
X106533834Y-72917916D01*
X106589767Y-72959788D01*
X106614184Y-73025252D01*
X106614500Y-73034098D01*
X106614500Y-73048468D01*
X106616710Y-73059576D01*
X106630329Y-73128047D01*
X106632117Y-73137033D01*
X106634500Y-73161224D01*
X106634500Y-74422870D01*
X106634501Y-74422876D01*
X106640908Y-74482483D01*
X106691202Y-74617328D01*
X106691206Y-74617335D01*
X106777452Y-74732544D01*
X106777455Y-74732547D01*
X106892664Y-74818793D01*
X106892671Y-74818797D01*
X107027517Y-74869091D01*
X107027516Y-74869091D01*
X107034444Y-74869835D01*
X107087127Y-74875500D01*
X108682872Y-74875499D01*
X108686193Y-74875499D01*
X108686193Y-74876222D01*
X108719607Y-74881328D01*
X108719967Y-74879807D01*
X108727515Y-74881590D01*
X108727517Y-74881591D01*
X108787127Y-74888000D01*
X109582872Y-74887999D01*
X109642483Y-74881591D01*
X109777331Y-74831296D01*
X109892546Y-74745046D01*
X109978796Y-74629831D01*
X110023055Y-74511165D01*
X110064926Y-74455233D01*
X110130390Y-74430815D01*
X110139237Y-74430499D01*
X110592351Y-74430499D01*
X110592375Y-74430500D01*
X110597486Y-74430500D01*
X111132513Y-74430500D01*
X111132514Y-74430500D01*
X111315264Y-74401555D01*
X111491235Y-74344379D01*
X111656096Y-74260378D01*
X111805787Y-74151621D01*
X111936621Y-74020787D01*
X112045378Y-73871096D01*
X112129379Y-73706235D01*
X112186555Y-73530264D01*
X112215500Y-73347514D01*
X112215500Y-73162486D01*
X112186555Y-72979736D01*
X112179054Y-72956649D01*
X112148567Y-72862816D01*
X112146572Y-72792975D01*
X112182653Y-72733142D01*
X112245354Y-72702315D01*
X112266498Y-72700499D01*
X112432871Y-72700499D01*
X112432872Y-72700499D01*
X112492483Y-72694091D01*
X112627331Y-72643796D01*
X112742546Y-72557546D01*
X112776234Y-72512543D01*
X112832167Y-72470674D01*
X112901859Y-72465690D01*
X112963182Y-72499175D01*
X112996666Y-72560499D01*
X112999500Y-72586856D01*
X112999500Y-76625500D01*
X112979815Y-76692539D01*
X112927011Y-76738294D01*
X112875500Y-76749500D01*
X73624500Y-76749500D01*
X73557461Y-76729815D01*
X73511706Y-76677011D01*
X73500500Y-76625500D01*
X73500500Y-73352155D01*
X74650000Y-73352155D01*
X74650000Y-74000000D01*
X75566988Y-74000000D01*
X75534075Y-74057007D01*
X75500000Y-74184174D01*
X75500000Y-74315826D01*
X75534075Y-74442993D01*
X75566988Y-74500000D01*
X74650000Y-74500000D01*
X74650000Y-75147844D01*
X74656401Y-75207372D01*
X74656403Y-75207379D01*
X74706645Y-75342086D01*
X74706649Y-75342093D01*
X74792809Y-75457187D01*
X74792812Y-75457190D01*
X74907906Y-75543350D01*
X74907913Y-75543354D01*
X75042620Y-75593596D01*
X75042627Y-75593598D01*
X75102155Y-75599999D01*
X75102172Y-75600000D01*
X75750000Y-75600000D01*
X75750000Y-74683012D01*
X75807007Y-74715925D01*
X75934174Y-74750000D01*
X76065826Y-74750000D01*
X76192993Y-74715925D01*
X76250000Y-74683012D01*
X76250000Y-75600000D01*
X76897828Y-75600000D01*
X76897844Y-75599999D01*
X76957372Y-75593598D01*
X76957379Y-75593596D01*
X77092086Y-75543354D01*
X77092093Y-75543350D01*
X77207187Y-75457190D01*
X77207190Y-75457187D01*
X77293350Y-75342093D01*
X77293354Y-75342086D01*
X77343596Y-75207379D01*
X77343598Y-75207372D01*
X77349999Y-75147844D01*
X77350000Y-75147827D01*
X77350000Y-74500000D01*
X76433012Y-74500000D01*
X76465925Y-74442993D01*
X76500000Y-74315826D01*
X76500000Y-74184174D01*
X76465925Y-74057007D01*
X76433012Y-74000000D01*
X77350000Y-74000000D01*
X77350000Y-73352172D01*
X77349999Y-73352155D01*
X77343598Y-73292627D01*
X77343596Y-73292620D01*
X77293354Y-73157913D01*
X77293350Y-73157906D01*
X77207190Y-73042812D01*
X77207187Y-73042809D01*
X77092093Y-72956649D01*
X77092086Y-72956645D01*
X76957379Y-72906403D01*
X76957372Y-72906401D01*
X76897844Y-72900000D01*
X76250000Y-72900000D01*
X76250000Y-73816988D01*
X76192993Y-73784075D01*
X76065826Y-73750000D01*
X75934174Y-73750000D01*
X75807007Y-73784075D01*
X75750000Y-73816988D01*
X75750000Y-72900000D01*
X75102155Y-72900000D01*
X75042627Y-72906401D01*
X75042620Y-72906403D01*
X74907913Y-72956645D01*
X74907906Y-72956649D01*
X74792812Y-73042809D01*
X74792809Y-73042812D01*
X74706649Y-73157906D01*
X74706645Y-73157913D01*
X74656403Y-73292620D01*
X74656401Y-73292627D01*
X74650000Y-73352155D01*
X73500500Y-73352155D01*
X73500500Y-56874500D01*
X73520185Y-56807461D01*
X73572989Y-56761706D01*
X73624500Y-56750500D01*
X112875500Y-56750500D01*
X112942539Y-56770185D01*
G37*
%TD.AperFunction*%
%TA.AperFunction,Conductor*%
G36*
X100517941Y-66420185D02*
G01*
X100563696Y-66472989D01*
X100573640Y-66542147D01*
X100544615Y-66605703D01*
X100538582Y-66612182D01*
X100481464Y-66669299D01*
X100420141Y-66702783D01*
X100407668Y-66704837D01*
X100320750Y-66714630D01*
X100150478Y-66774210D01*
X99997737Y-66870184D01*
X99870184Y-66997737D01*
X99774211Y-67150476D01*
X99714631Y-67320745D01*
X99714630Y-67320750D01*
X99694435Y-67499996D01*
X99694435Y-67500003D01*
X99714630Y-67679249D01*
X99714631Y-67679254D01*
X99774211Y-67849523D01*
X99856523Y-67980521D01*
X99870184Y-68002262D01*
X99997738Y-68129816D01*
X100150478Y-68225789D01*
X100320745Y-68285368D01*
X100407669Y-68295161D01*
X100472080Y-68322226D01*
X100481465Y-68330700D01*
X101488181Y-69337416D01*
X101521666Y-69398739D01*
X101524500Y-69425097D01*
X101524500Y-69581613D01*
X101530913Y-69652192D01*
X101530913Y-69652194D01*
X101530914Y-69652196D01*
X101581522Y-69814606D01*
X101654817Y-69935851D01*
X101672653Y-70003403D01*
X101654819Y-70064145D01*
X101645738Y-70079168D01*
X101594212Y-70126358D01*
X101525353Y-70138199D01*
X101461023Y-70110932D01*
X101451938Y-70102703D01*
X101330700Y-69981465D01*
X101297215Y-69920142D01*
X101295163Y-69907686D01*
X101285368Y-69820745D01*
X101225789Y-69650478D01*
X101129816Y-69497738D01*
X101002262Y-69370184D01*
X100918343Y-69317454D01*
X100849523Y-69274211D01*
X100679254Y-69214631D01*
X100679249Y-69214630D01*
X100500004Y-69194435D01*
X100499996Y-69194435D01*
X100320750Y-69214630D01*
X100320745Y-69214631D01*
X100150476Y-69274211D01*
X99997737Y-69370184D01*
X99870184Y-69497737D01*
X99774211Y-69650476D01*
X99714631Y-69820745D01*
X99714630Y-69820750D01*
X99694435Y-69999996D01*
X99694435Y-70000003D01*
X99714630Y-70179249D01*
X99714631Y-70179254D01*
X99774211Y-70349523D01*
X99870184Y-70502262D01*
X99905741Y-70537819D01*
X99939226Y-70599142D01*
X99934242Y-70668834D01*
X99892370Y-70724767D01*
X99826906Y-70749184D01*
X99818060Y-70749500D01*
X98974500Y-70749500D01*
X98907461Y-70729815D01*
X98861706Y-70677011D01*
X98850500Y-70625500D01*
X98850500Y-68839060D01*
X98850501Y-68839047D01*
X98850501Y-68663348D01*
X98850500Y-68663330D01*
X98850500Y-68510349D01*
X98870185Y-68443310D01*
X98922989Y-68397555D01*
X98958316Y-68387410D01*
X98975103Y-68385200D01*
X98975108Y-68385198D01*
X99114978Y-68327263D01*
X99235094Y-68235094D01*
X99327263Y-68114978D01*
X99385198Y-67975108D01*
X99385199Y-67975104D01*
X99399999Y-67862697D01*
X99400000Y-67862683D01*
X99400000Y-67312500D01*
X99024500Y-67312500D01*
X98957461Y-67292815D01*
X98911706Y-67240011D01*
X98900500Y-67188500D01*
X98900500Y-67136500D01*
X98920185Y-67069461D01*
X98972989Y-67023706D01*
X99024500Y-67012500D01*
X99400000Y-67012500D01*
X99400000Y-66524500D01*
X99419685Y-66457461D01*
X99472489Y-66411706D01*
X99524000Y-66400500D01*
X100450902Y-66400500D01*
X100517941Y-66420185D01*
G37*
%TD.AperFunction*%
%TA.AperFunction,Conductor*%
G36*
X97087502Y-68393442D02*
G01*
X97151399Y-68421708D01*
X97186337Y-68474675D01*
X97187311Y-68474272D01*
X97189403Y-68479323D01*
X97189871Y-68480032D01*
X97190264Y-68481400D01*
X97190422Y-68481782D01*
X97190423Y-68481785D01*
X97194191Y-68488312D01*
X97199709Y-68497870D01*
X97199711Y-68497872D01*
X97269477Y-68618712D01*
X97269481Y-68618717D01*
X97381285Y-68730521D01*
X97613181Y-68962416D01*
X97646666Y-69023739D01*
X97649500Y-69050097D01*
X97649500Y-70250903D01*
X97629815Y-70317942D01*
X97577011Y-70363697D01*
X97507853Y-70373641D01*
X97444297Y-70344616D01*
X97437819Y-70338584D01*
X96500224Y-69400989D01*
X96466739Y-69339666D01*
X96471723Y-69269974D01*
X96482911Y-69247336D01*
X96575789Y-69099522D01*
X96635368Y-68929255D01*
X96635588Y-68927306D01*
X96655565Y-68750003D01*
X96655565Y-68749996D01*
X96635369Y-68570750D01*
X96635367Y-68570742D01*
X96633517Y-68565454D01*
X96629956Y-68495675D01*
X96664685Y-68435048D01*
X96726678Y-68402821D01*
X96750559Y-68400500D01*
X96862713Y-68400500D01*
X96862720Y-68400500D01*
X96975236Y-68385687D01*
X96975236Y-68385686D01*
X96983295Y-68384626D01*
X96983529Y-68386409D01*
X97017268Y-68384196D01*
X97087502Y-68393442D01*
G37*
%TD.AperFunction*%
%TA.AperFunction,Conductor*%
G36*
X90556690Y-60870185D02*
G01*
X90602445Y-60922989D01*
X90612590Y-60958316D01*
X90615804Y-60982731D01*
X90613595Y-61016472D01*
X90615374Y-61016707D01*
X90599500Y-61137272D01*
X90599500Y-61362727D01*
X90615374Y-61483292D01*
X90612399Y-61483683D01*
X90612399Y-61516316D01*
X90615374Y-61516708D01*
X90614313Y-61524762D01*
X90614313Y-61524764D01*
X90611307Y-61547597D01*
X90599500Y-61637272D01*
X90599500Y-61862727D01*
X90605928Y-61911547D01*
X90613629Y-61970044D01*
X90615374Y-61983292D01*
X90612399Y-61983683D01*
X90612399Y-62016316D01*
X90615374Y-62016708D01*
X90614313Y-62024762D01*
X90614313Y-62024764D01*
X90612987Y-62034835D01*
X90599500Y-62137272D01*
X90599500Y-62362727D01*
X90615374Y-62483292D01*
X90612399Y-62483683D01*
X90612399Y-62516316D01*
X90615374Y-62516708D01*
X90599500Y-62637272D01*
X90599500Y-62862727D01*
X90607967Y-62927032D01*
X90612986Y-62965159D01*
X90615374Y-62983292D01*
X90612399Y-62983683D01*
X90612399Y-63016316D01*
X90615374Y-63016708D01*
X90599500Y-63137272D01*
X90599500Y-63362727D01*
X90610499Y-63446271D01*
X90611207Y-63451647D01*
X90615374Y-63483292D01*
X90612399Y-63483683D01*
X90612399Y-63516316D01*
X90615374Y-63516708D01*
X90599500Y-63637272D01*
X90599500Y-63862727D01*
X90615374Y-63983292D01*
X90612399Y-63983683D01*
X90612399Y-64016316D01*
X90615374Y-64016708D01*
X90599500Y-64137272D01*
X90599500Y-64362727D01*
X90615374Y-64483293D01*
X90613593Y-64483527D01*
X90615804Y-64517270D01*
X90604911Y-64599999D01*
X90606801Y-64602154D01*
X90666503Y-64619685D01*
X90697838Y-64648512D01*
X90736487Y-64698880D01*
X90737741Y-64700514D01*
X90762935Y-64765683D01*
X90748897Y-64834128D01*
X90700083Y-64884117D01*
X90639365Y-64900000D01*
X90604912Y-64900000D01*
X90615861Y-64983161D01*
X90612915Y-64983548D01*
X90612915Y-65016451D01*
X90615861Y-65016839D01*
X90604911Y-65099999D01*
X90604912Y-65100000D01*
X91687500Y-65100000D01*
X91687500Y-65024500D01*
X91707185Y-64957461D01*
X91759989Y-64911706D01*
X91811500Y-64900500D01*
X91863500Y-64900500D01*
X91930539Y-64920185D01*
X91976294Y-64972989D01*
X91987500Y-65024500D01*
X91987500Y-65776000D01*
X91967815Y-65843039D01*
X91915011Y-65888794D01*
X91863500Y-65900000D01*
X90604912Y-65900000D01*
X90614800Y-65975103D01*
X90614801Y-65975108D01*
X90672736Y-66114978D01*
X90764905Y-66235094D01*
X90885021Y-66327263D01*
X91024891Y-66385198D01*
X91024895Y-66385199D01*
X91137302Y-66399999D01*
X91137317Y-66400000D01*
X91308813Y-66400000D01*
X91375852Y-66419685D01*
X91421607Y-66472489D01*
X91431551Y-66541647D01*
X91402526Y-66605203D01*
X91396494Y-66611681D01*
X91144994Y-66863181D01*
X91083671Y-66896666D01*
X91057313Y-66899500D01*
X87100097Y-66899500D01*
X87033058Y-66879815D01*
X87012416Y-66863181D01*
X86636319Y-66487084D01*
X86616070Y-66450000D01*
X87100000Y-66450000D01*
X87597828Y-66450000D01*
X87597844Y-66449999D01*
X87657372Y-66443598D01*
X87657379Y-66443596D01*
X87792086Y-66393354D01*
X87792093Y-66393350D01*
X87907187Y-66307190D01*
X87907190Y-66307187D01*
X87993350Y-66192093D01*
X87993354Y-66192086D01*
X88043596Y-66057379D01*
X88043598Y-66057372D01*
X88049999Y-65997844D01*
X88050000Y-65997827D01*
X88050000Y-65600000D01*
X87100000Y-65600000D01*
X87100000Y-66450000D01*
X86616070Y-66450000D01*
X86602834Y-66425761D01*
X86600000Y-66399403D01*
X86600000Y-65599999D01*
X90604911Y-65599999D01*
X90604912Y-65600000D01*
X91687500Y-65600000D01*
X91687500Y-65400000D01*
X90604912Y-65400000D01*
X90615861Y-65483161D01*
X90612915Y-65483548D01*
X90612915Y-65516451D01*
X90615861Y-65516839D01*
X90604911Y-65599999D01*
X86600000Y-65599999D01*
X86600000Y-65224000D01*
X86619685Y-65156961D01*
X86672489Y-65111206D01*
X86724000Y-65100000D01*
X88050000Y-65100000D01*
X88050000Y-64702172D01*
X88049999Y-64702155D01*
X88045668Y-64661875D01*
X88058072Y-64593116D01*
X88105682Y-64541978D01*
X88173381Y-64524698D01*
X88209913Y-64531577D01*
X88220745Y-64535368D01*
X88220748Y-64535368D01*
X88220750Y-64535369D01*
X88399996Y-64555565D01*
X88400000Y-64555565D01*
X88400004Y-64555565D01*
X88579249Y-64535369D01*
X88579252Y-64535368D01*
X88579255Y-64535368D01*
X88749522Y-64475789D01*
X88902262Y-64379816D01*
X89029816Y-64252262D01*
X89125789Y-64099522D01*
X89185368Y-63929255D01*
X89185369Y-63929249D01*
X89205565Y-63750003D01*
X89205565Y-63749996D01*
X89185369Y-63570750D01*
X89185368Y-63570745D01*
X89170533Y-63528348D01*
X89125789Y-63400478D01*
X89102068Y-63362727D01*
X89067249Y-63307312D01*
X89029816Y-63247738D01*
X88902262Y-63120184D01*
X88869379Y-63099522D01*
X88749523Y-63024211D01*
X88579254Y-62964631D01*
X88579249Y-62964630D01*
X88400004Y-62944435D01*
X88399996Y-62944435D01*
X88220746Y-62964631D01*
X88220745Y-62964631D01*
X88186457Y-62976629D01*
X88116678Y-62980190D01*
X88056051Y-62945460D01*
X88029322Y-62902919D01*
X87993798Y-62807673D01*
X87993793Y-62807664D01*
X87907547Y-62692455D01*
X87907544Y-62692452D01*
X87792335Y-62606206D01*
X87792328Y-62606202D01*
X87657482Y-62555908D01*
X87657483Y-62555908D01*
X87597883Y-62549501D01*
X87597881Y-62549500D01*
X87597873Y-62549500D01*
X87597865Y-62549500D01*
X87249500Y-62549500D01*
X87182461Y-62529815D01*
X87136706Y-62477011D01*
X87125500Y-62425500D01*
X87125500Y-62190004D01*
X87145185Y-62122965D01*
X87184403Y-62084465D01*
X87203044Y-62072968D01*
X87322968Y-61953044D01*
X87322972Y-61953037D01*
X87325189Y-61950234D01*
X87327572Y-61947556D01*
X87330515Y-61943721D01*
X87330516Y-61943718D01*
X87330519Y-61943716D01*
X87355951Y-61899663D01*
X87357737Y-61896672D01*
X87396109Y-61834465D01*
X87412001Y-61808701D01*
X87412001Y-61808699D01*
X87412003Y-61808697D01*
X87465349Y-61647708D01*
X87475500Y-61548345D01*
X87475499Y-60974499D01*
X87495183Y-60907461D01*
X87547987Y-60861706D01*
X87599499Y-60850500D01*
X90489651Y-60850500D01*
X90556690Y-60870185D01*
G37*
%TD.AperFunction*%
%TD*%
M02*
