M48
; DRILL file {KiCad 8.0.4+dfsg-1} date 2024-12-18T14:37:14+0000
; FORMAT={-:-/ absolute / inch / decimal}
; #@! TF.CreationDate,2024-12-18T14:37:14+00:00
; #@! TF.GenerationSoftware,Kicad,Pcbnew,8.0.4+dfsg-1
; #@! TF.FileFunction,Plated,1,2,PTH
FMAT,2
INCH
; #@! TA.AperFunction,Plated,PTH,ViaDrill
T1C0.0118
; #@! TA.AperFunction,Plated,PTH,ComponentDrill
T2C0.0256
; #@! TA.AperFunction,Plated,PTH,ComponentDrill
T3C0.0276
; #@! TA.AperFunction,Plated,PTH,ComponentDrill
T4C0.0394
%
G90
G05
T1
X3.3563Y-2.687
X3.3661Y-2.8543
X3.4547Y-2.628
X3.4803Y-2.5098
X3.4941Y-2.9232
X3.6811Y-2.7657
X3.686Y-2.7264
X3.7106Y-2.372
X3.7736Y-2.7067
X3.8287Y-2.7559
X3.8681Y-2.372
X3.8917Y-2.7559
X3.9567Y-2.6575
X3.9567Y-2.7559
X3.9862Y-2.8091
X4.0059Y-2.4705
X4.0354Y-2.372
X4.065Y-2.9035
X4.1604Y-2.7294
X4.1688Y-2.5537
T4
X2.9921Y-2.3327
X2.9921Y-2.4803
X2.9921Y-2.628
X2.9921Y-2.7756
X2.9921Y-2.9232
T2
G00X4.2545Y-2.6813
M15
G01X4.2388Y-2.6813
M16
G05
G00X4.2545Y-2.8719
M15
G01X4.2388Y-2.8719
M16
G05
T3
G00X4.3746Y-2.6691
M15
G01X4.3549Y-2.6691
M16
G05
G00X4.3746Y-2.8841
M15
G01X4.3549Y-2.8841
M16
G05
M30
