%TF.GenerationSoftware,KiCad,Pcbnew,8.0.4+dfsg-1*%
%TF.CreationDate,2024-12-18T14:37:18+00:00*%
%TF.ProjectId,single-sided-radio-interface,73696e67-6c65-42d7-9369-6465642d7261,rev?*%
%TF.SameCoordinates,Original*%
%TF.FileFunction,Copper,L2,Bot*%
%TF.FilePolarity,Positive*%
%FSLAX46Y46*%
G04 Gerber Fmt 4.6, Leading zero omitted, Abs format (unit mm)*
G04 Created by KiCad (PCBNEW 8.0.4+dfsg-1) date 2024-12-18 14:37:18*
%MOMM*%
%LPD*%
G01*
G04 APERTURE LIST*
%ADD10C,0.300000*%
%TA.AperFunction,NonConductor*%
%ADD11C,0.300000*%
%TD*%
%TA.AperFunction,ComponentPad*%
%ADD12R,1.700000X1.700000*%
%TD*%
%TA.AperFunction,ComponentPad*%
%ADD13O,1.700000X1.350000*%
%TD*%
%TA.AperFunction,ComponentPad*%
%ADD14O,1.500000X1.100000*%
%TD*%
%TA.AperFunction,ViaPad*%
%ADD15C,0.600000*%
%TD*%
%TA.AperFunction,Conductor*%
%ADD16C,0.200000*%
%TD*%
G04 APERTURE END LIST*
D10*
D11*
X111088346Y-58657971D02*
X111159774Y-58729400D01*
X111159774Y-58729400D02*
X111374060Y-58800828D01*
X111374060Y-58800828D02*
X111516917Y-58800828D01*
X111516917Y-58800828D02*
X111731203Y-58729400D01*
X111731203Y-58729400D02*
X111874060Y-58586542D01*
X111874060Y-58586542D02*
X111945489Y-58443685D01*
X111945489Y-58443685D02*
X112016917Y-58157971D01*
X112016917Y-58157971D02*
X112016917Y-57943685D01*
X112016917Y-57943685D02*
X111945489Y-57657971D01*
X111945489Y-57657971D02*
X111874060Y-57515114D01*
X111874060Y-57515114D02*
X111731203Y-57372257D01*
X111731203Y-57372257D02*
X111516917Y-57300828D01*
X111516917Y-57300828D02*
X111374060Y-57300828D01*
X111374060Y-57300828D02*
X111159774Y-57372257D01*
X111159774Y-57372257D02*
X111088346Y-57443685D01*
X110445489Y-58800828D02*
X110445489Y-57300828D01*
X110445489Y-57300828D02*
X109945489Y-58372257D01*
X109945489Y-58372257D02*
X109445489Y-57300828D01*
X109445489Y-57300828D02*
X109445489Y-58800828D01*
X107945488Y-58800828D02*
X108802631Y-58800828D01*
X108374060Y-58800828D02*
X108374060Y-57300828D01*
X108374060Y-57300828D02*
X108516917Y-57515114D01*
X108516917Y-57515114D02*
X108659774Y-57657971D01*
X108659774Y-57657971D02*
X108802631Y-57729400D01*
X107016917Y-57300828D02*
X106874060Y-57300828D01*
X106874060Y-57300828D02*
X106731203Y-57372257D01*
X106731203Y-57372257D02*
X106659775Y-57443685D01*
X106659775Y-57443685D02*
X106588346Y-57586542D01*
X106588346Y-57586542D02*
X106516917Y-57872257D01*
X106516917Y-57872257D02*
X106516917Y-58229400D01*
X106516917Y-58229400D02*
X106588346Y-58515114D01*
X106588346Y-58515114D02*
X106659775Y-58657971D01*
X106659775Y-58657971D02*
X106731203Y-58729400D01*
X106731203Y-58729400D02*
X106874060Y-58800828D01*
X106874060Y-58800828D02*
X107016917Y-58800828D01*
X107016917Y-58800828D02*
X107159775Y-58729400D01*
X107159775Y-58729400D02*
X107231203Y-58657971D01*
X107231203Y-58657971D02*
X107302632Y-58515114D01*
X107302632Y-58515114D02*
X107374060Y-58229400D01*
X107374060Y-58229400D02*
X107374060Y-57872257D01*
X107374060Y-57872257D02*
X107302632Y-57586542D01*
X107302632Y-57586542D02*
X107231203Y-57443685D01*
X107231203Y-57443685D02*
X107159775Y-57372257D01*
X107159775Y-57372257D02*
X107016917Y-57300828D01*
X105659775Y-57943685D02*
X105802632Y-57872257D01*
X105802632Y-57872257D02*
X105874061Y-57800828D01*
X105874061Y-57800828D02*
X105945489Y-57657971D01*
X105945489Y-57657971D02*
X105945489Y-57586542D01*
X105945489Y-57586542D02*
X105874061Y-57443685D01*
X105874061Y-57443685D02*
X105802632Y-57372257D01*
X105802632Y-57372257D02*
X105659775Y-57300828D01*
X105659775Y-57300828D02*
X105374061Y-57300828D01*
X105374061Y-57300828D02*
X105231204Y-57372257D01*
X105231204Y-57372257D02*
X105159775Y-57443685D01*
X105159775Y-57443685D02*
X105088346Y-57586542D01*
X105088346Y-57586542D02*
X105088346Y-57657971D01*
X105088346Y-57657971D02*
X105159775Y-57800828D01*
X105159775Y-57800828D02*
X105231204Y-57872257D01*
X105231204Y-57872257D02*
X105374061Y-57943685D01*
X105374061Y-57943685D02*
X105659775Y-57943685D01*
X105659775Y-57943685D02*
X105802632Y-58015114D01*
X105802632Y-58015114D02*
X105874061Y-58086542D01*
X105874061Y-58086542D02*
X105945489Y-58229400D01*
X105945489Y-58229400D02*
X105945489Y-58515114D01*
X105945489Y-58515114D02*
X105874061Y-58657971D01*
X105874061Y-58657971D02*
X105802632Y-58729400D01*
X105802632Y-58729400D02*
X105659775Y-58800828D01*
X105659775Y-58800828D02*
X105374061Y-58800828D01*
X105374061Y-58800828D02*
X105231204Y-58729400D01*
X105231204Y-58729400D02*
X105159775Y-58657971D01*
X105159775Y-58657971D02*
X105088346Y-58515114D01*
X105088346Y-58515114D02*
X105088346Y-58229400D01*
X105088346Y-58229400D02*
X105159775Y-58086542D01*
X105159775Y-58086542D02*
X105231204Y-58015114D01*
X105231204Y-58015114D02*
X105374061Y-57943685D01*
X102445490Y-58800828D02*
X102945490Y-58086542D01*
X103302633Y-58800828D02*
X103302633Y-57300828D01*
X103302633Y-57300828D02*
X102731204Y-57300828D01*
X102731204Y-57300828D02*
X102588347Y-57372257D01*
X102588347Y-57372257D02*
X102516918Y-57443685D01*
X102516918Y-57443685D02*
X102445490Y-57586542D01*
X102445490Y-57586542D02*
X102445490Y-57800828D01*
X102445490Y-57800828D02*
X102516918Y-57943685D01*
X102516918Y-57943685D02*
X102588347Y-58015114D01*
X102588347Y-58015114D02*
X102731204Y-58086542D01*
X102731204Y-58086542D02*
X103302633Y-58086542D01*
X101159776Y-58800828D02*
X101159776Y-58015114D01*
X101159776Y-58015114D02*
X101231204Y-57872257D01*
X101231204Y-57872257D02*
X101374061Y-57800828D01*
X101374061Y-57800828D02*
X101659776Y-57800828D01*
X101659776Y-57800828D02*
X101802633Y-57872257D01*
X101159776Y-58729400D02*
X101302633Y-58800828D01*
X101302633Y-58800828D02*
X101659776Y-58800828D01*
X101659776Y-58800828D02*
X101802633Y-58729400D01*
X101802633Y-58729400D02*
X101874061Y-58586542D01*
X101874061Y-58586542D02*
X101874061Y-58443685D01*
X101874061Y-58443685D02*
X101802633Y-58300828D01*
X101802633Y-58300828D02*
X101659776Y-58229400D01*
X101659776Y-58229400D02*
X101302633Y-58229400D01*
X101302633Y-58229400D02*
X101159776Y-58157971D01*
X99802633Y-58800828D02*
X99802633Y-57300828D01*
X99802633Y-58729400D02*
X99945490Y-58800828D01*
X99945490Y-58800828D02*
X100231204Y-58800828D01*
X100231204Y-58800828D02*
X100374061Y-58729400D01*
X100374061Y-58729400D02*
X100445490Y-58657971D01*
X100445490Y-58657971D02*
X100516918Y-58515114D01*
X100516918Y-58515114D02*
X100516918Y-58086542D01*
X100516918Y-58086542D02*
X100445490Y-57943685D01*
X100445490Y-57943685D02*
X100374061Y-57872257D01*
X100374061Y-57872257D02*
X100231204Y-57800828D01*
X100231204Y-57800828D02*
X99945490Y-57800828D01*
X99945490Y-57800828D02*
X99802633Y-57872257D01*
X99088347Y-58800828D02*
X99088347Y-57800828D01*
X99088347Y-57300828D02*
X99159775Y-57372257D01*
X99159775Y-57372257D02*
X99088347Y-57443685D01*
X99088347Y-57443685D02*
X99016918Y-57372257D01*
X99016918Y-57372257D02*
X99088347Y-57300828D01*
X99088347Y-57300828D02*
X99088347Y-57443685D01*
X98159775Y-58800828D02*
X98302632Y-58729400D01*
X98302632Y-58729400D02*
X98374061Y-58657971D01*
X98374061Y-58657971D02*
X98445489Y-58515114D01*
X98445489Y-58515114D02*
X98445489Y-58086542D01*
X98445489Y-58086542D02*
X98374061Y-57943685D01*
X98374061Y-57943685D02*
X98302632Y-57872257D01*
X98302632Y-57872257D02*
X98159775Y-57800828D01*
X98159775Y-57800828D02*
X97945489Y-57800828D01*
X97945489Y-57800828D02*
X97802632Y-57872257D01*
X97802632Y-57872257D02*
X97731204Y-57943685D01*
X97731204Y-57943685D02*
X97659775Y-58086542D01*
X97659775Y-58086542D02*
X97659775Y-58515114D01*
X97659775Y-58515114D02*
X97731204Y-58657971D01*
X97731204Y-58657971D02*
X97802632Y-58729400D01*
X97802632Y-58729400D02*
X97945489Y-58800828D01*
X97945489Y-58800828D02*
X98159775Y-58800828D01*
X96016918Y-57300828D02*
X95659775Y-58800828D01*
X95659775Y-58800828D02*
X95374061Y-57729400D01*
X95374061Y-57729400D02*
X95088346Y-58800828D01*
X95088346Y-58800828D02*
X94731204Y-57300828D01*
X94159775Y-58800828D02*
X94159775Y-57800828D01*
X94159775Y-57300828D02*
X94231203Y-57372257D01*
X94231203Y-57372257D02*
X94159775Y-57443685D01*
X94159775Y-57443685D02*
X94088346Y-57372257D01*
X94088346Y-57372257D02*
X94159775Y-57300828D01*
X94159775Y-57300828D02*
X94159775Y-57443685D01*
X92802632Y-58800828D02*
X92802632Y-57300828D01*
X92802632Y-58729400D02*
X92945489Y-58800828D01*
X92945489Y-58800828D02*
X93231203Y-58800828D01*
X93231203Y-58800828D02*
X93374060Y-58729400D01*
X93374060Y-58729400D02*
X93445489Y-58657971D01*
X93445489Y-58657971D02*
X93516917Y-58515114D01*
X93516917Y-58515114D02*
X93516917Y-58086542D01*
X93516917Y-58086542D02*
X93445489Y-57943685D01*
X93445489Y-57943685D02*
X93374060Y-57872257D01*
X93374060Y-57872257D02*
X93231203Y-57800828D01*
X93231203Y-57800828D02*
X92945489Y-57800828D01*
X92945489Y-57800828D02*
X92802632Y-57872257D01*
X91445489Y-57800828D02*
X91445489Y-59015114D01*
X91445489Y-59015114D02*
X91516917Y-59157971D01*
X91516917Y-59157971D02*
X91588346Y-59229400D01*
X91588346Y-59229400D02*
X91731203Y-59300828D01*
X91731203Y-59300828D02*
X91945489Y-59300828D01*
X91945489Y-59300828D02*
X92088346Y-59229400D01*
X91445489Y-58729400D02*
X91588346Y-58800828D01*
X91588346Y-58800828D02*
X91874060Y-58800828D01*
X91874060Y-58800828D02*
X92016917Y-58729400D01*
X92016917Y-58729400D02*
X92088346Y-58657971D01*
X92088346Y-58657971D02*
X92159774Y-58515114D01*
X92159774Y-58515114D02*
X92159774Y-58086542D01*
X92159774Y-58086542D02*
X92088346Y-57943685D01*
X92088346Y-57943685D02*
X92016917Y-57872257D01*
X92016917Y-57872257D02*
X91874060Y-57800828D01*
X91874060Y-57800828D02*
X91588346Y-57800828D01*
X91588346Y-57800828D02*
X91445489Y-57872257D01*
X90159774Y-58729400D02*
X90302631Y-58800828D01*
X90302631Y-58800828D02*
X90588346Y-58800828D01*
X90588346Y-58800828D02*
X90731203Y-58729400D01*
X90731203Y-58729400D02*
X90802631Y-58586542D01*
X90802631Y-58586542D02*
X90802631Y-58015114D01*
X90802631Y-58015114D02*
X90731203Y-57872257D01*
X90731203Y-57872257D02*
X90588346Y-57800828D01*
X90588346Y-57800828D02*
X90302631Y-57800828D01*
X90302631Y-57800828D02*
X90159774Y-57872257D01*
X90159774Y-57872257D02*
X90088346Y-58015114D01*
X90088346Y-58015114D02*
X90088346Y-58157971D01*
X90088346Y-58157971D02*
X90802631Y-58300828D01*
X89659774Y-57800828D02*
X89088346Y-57800828D01*
X89445489Y-57300828D02*
X89445489Y-58586542D01*
X89445489Y-58586542D02*
X89374060Y-58729400D01*
X89374060Y-58729400D02*
X89231203Y-58800828D01*
X89231203Y-58800828D02*
X89088346Y-58800828D01*
D10*
D11*
X79695489Y-67550828D02*
X79695489Y-66050828D01*
X78981203Y-67550828D02*
X78981203Y-66050828D01*
X78981203Y-66050828D02*
X78124060Y-67550828D01*
X78124060Y-67550828D02*
X78124060Y-66050828D01*
D10*
D11*
X81195489Y-60300828D02*
X81195489Y-58800828D01*
X81195489Y-58800828D02*
X80624060Y-58800828D01*
X80624060Y-58800828D02*
X80481203Y-58872257D01*
X80481203Y-58872257D02*
X80409774Y-58943685D01*
X80409774Y-58943685D02*
X80338346Y-59086542D01*
X80338346Y-59086542D02*
X80338346Y-59300828D01*
X80338346Y-59300828D02*
X80409774Y-59443685D01*
X80409774Y-59443685D02*
X80481203Y-59515114D01*
X80481203Y-59515114D02*
X80624060Y-59586542D01*
X80624060Y-59586542D02*
X81195489Y-59586542D01*
X79909774Y-58800828D02*
X79052632Y-58800828D01*
X79481203Y-60300828D02*
X79481203Y-58800828D01*
X78766917Y-58800828D02*
X77909775Y-58800828D01*
X78338346Y-60300828D02*
X78338346Y-58800828D01*
D10*
D11*
X81159774Y-73872257D02*
X81302632Y-73800828D01*
X81302632Y-73800828D02*
X81516917Y-73800828D01*
X81516917Y-73800828D02*
X81731203Y-73872257D01*
X81731203Y-73872257D02*
X81874060Y-74015114D01*
X81874060Y-74015114D02*
X81945489Y-74157971D01*
X81945489Y-74157971D02*
X82016917Y-74443685D01*
X82016917Y-74443685D02*
X82016917Y-74657971D01*
X82016917Y-74657971D02*
X81945489Y-74943685D01*
X81945489Y-74943685D02*
X81874060Y-75086542D01*
X81874060Y-75086542D02*
X81731203Y-75229400D01*
X81731203Y-75229400D02*
X81516917Y-75300828D01*
X81516917Y-75300828D02*
X81374060Y-75300828D01*
X81374060Y-75300828D02*
X81159774Y-75229400D01*
X81159774Y-75229400D02*
X81088346Y-75157971D01*
X81088346Y-75157971D02*
X81088346Y-74657971D01*
X81088346Y-74657971D02*
X81374060Y-74657971D01*
X80445489Y-75300828D02*
X80445489Y-73800828D01*
X80445489Y-73800828D02*
X79588346Y-75300828D01*
X79588346Y-75300828D02*
X79588346Y-73800828D01*
X78874060Y-75300828D02*
X78874060Y-73800828D01*
X78874060Y-73800828D02*
X78516917Y-73800828D01*
X78516917Y-73800828D02*
X78302631Y-73872257D01*
X78302631Y-73872257D02*
X78159774Y-74015114D01*
X78159774Y-74015114D02*
X78088345Y-74157971D01*
X78088345Y-74157971D02*
X78016917Y-74443685D01*
X78016917Y-74443685D02*
X78016917Y-74657971D01*
X78016917Y-74657971D02*
X78088345Y-74943685D01*
X78088345Y-74943685D02*
X78159774Y-75086542D01*
X78159774Y-75086542D02*
X78302631Y-75229400D01*
X78302631Y-75229400D02*
X78516917Y-75300828D01*
X78516917Y-75300828D02*
X78874060Y-75300828D01*
D10*
D11*
X81409774Y-62300828D02*
X81124060Y-62300828D01*
X81124060Y-62300828D02*
X80981203Y-62372257D01*
X80981203Y-62372257D02*
X80838346Y-62515114D01*
X80838346Y-62515114D02*
X80766917Y-62800828D01*
X80766917Y-62800828D02*
X80766917Y-63300828D01*
X80766917Y-63300828D02*
X80838346Y-63586542D01*
X80838346Y-63586542D02*
X80981203Y-63729400D01*
X80981203Y-63729400D02*
X81124060Y-63800828D01*
X81124060Y-63800828D02*
X81409774Y-63800828D01*
X81409774Y-63800828D02*
X81552632Y-63729400D01*
X81552632Y-63729400D02*
X81695489Y-63586542D01*
X81695489Y-63586542D02*
X81766917Y-63300828D01*
X81766917Y-63300828D02*
X81766917Y-62800828D01*
X81766917Y-62800828D02*
X81695489Y-62515114D01*
X81695489Y-62515114D02*
X81552632Y-62372257D01*
X81552632Y-62372257D02*
X81409774Y-62300828D01*
X80124060Y-62300828D02*
X80124060Y-63515114D01*
X80124060Y-63515114D02*
X80052631Y-63657971D01*
X80052631Y-63657971D02*
X79981203Y-63729400D01*
X79981203Y-63729400D02*
X79838345Y-63800828D01*
X79838345Y-63800828D02*
X79552631Y-63800828D01*
X79552631Y-63800828D02*
X79409774Y-63729400D01*
X79409774Y-63729400D02*
X79338345Y-63657971D01*
X79338345Y-63657971D02*
X79266917Y-63515114D01*
X79266917Y-63515114D02*
X79266917Y-62300828D01*
X78766916Y-62300828D02*
X77909774Y-62300828D01*
X78338345Y-63800828D02*
X78338345Y-62300828D01*
D10*
D11*
X111659774Y-74800828D02*
X110802632Y-74800828D01*
X111231203Y-76300828D02*
X111231203Y-74800828D01*
X110088346Y-76300828D02*
X110231203Y-76229400D01*
X110231203Y-76229400D02*
X110302632Y-76157971D01*
X110302632Y-76157971D02*
X110374060Y-76015114D01*
X110374060Y-76015114D02*
X110374060Y-75586542D01*
X110374060Y-75586542D02*
X110302632Y-75443685D01*
X110302632Y-75443685D02*
X110231203Y-75372257D01*
X110231203Y-75372257D02*
X110088346Y-75300828D01*
X110088346Y-75300828D02*
X109874060Y-75300828D01*
X109874060Y-75300828D02*
X109731203Y-75372257D01*
X109731203Y-75372257D02*
X109659775Y-75443685D01*
X109659775Y-75443685D02*
X109588346Y-75586542D01*
X109588346Y-75586542D02*
X109588346Y-76015114D01*
X109588346Y-76015114D02*
X109659775Y-76157971D01*
X109659775Y-76157971D02*
X109731203Y-76229400D01*
X109731203Y-76229400D02*
X109874060Y-76300828D01*
X109874060Y-76300828D02*
X110088346Y-76300828D01*
X108945489Y-76300828D02*
X108945489Y-75300828D01*
X108945489Y-75443685D02*
X108874060Y-75372257D01*
X108874060Y-75372257D02*
X108731203Y-75300828D01*
X108731203Y-75300828D02*
X108516917Y-75300828D01*
X108516917Y-75300828D02*
X108374060Y-75372257D01*
X108374060Y-75372257D02*
X108302632Y-75515114D01*
X108302632Y-75515114D02*
X108302632Y-76300828D01*
X108302632Y-75515114D02*
X108231203Y-75372257D01*
X108231203Y-75372257D02*
X108088346Y-75300828D01*
X108088346Y-75300828D02*
X107874060Y-75300828D01*
X107874060Y-75300828D02*
X107731203Y-75372257D01*
X107731203Y-75372257D02*
X107659774Y-75515114D01*
X107659774Y-75515114D02*
X107659774Y-76300828D01*
X105874060Y-74943685D02*
X105802632Y-74872257D01*
X105802632Y-74872257D02*
X105659775Y-74800828D01*
X105659775Y-74800828D02*
X105302632Y-74800828D01*
X105302632Y-74800828D02*
X105159775Y-74872257D01*
X105159775Y-74872257D02*
X105088346Y-74943685D01*
X105088346Y-74943685D02*
X105016917Y-75086542D01*
X105016917Y-75086542D02*
X105016917Y-75229400D01*
X105016917Y-75229400D02*
X105088346Y-75443685D01*
X105088346Y-75443685D02*
X105945489Y-76300828D01*
X105945489Y-76300828D02*
X105016917Y-76300828D01*
X104374061Y-75515114D02*
X103874061Y-75515114D01*
X103659775Y-76300828D02*
X104374061Y-76300828D01*
X104374061Y-76300828D02*
X104374061Y-74800828D01*
X104374061Y-74800828D02*
X103659775Y-74800828D01*
X102731203Y-74800828D02*
X102588346Y-74800828D01*
X102588346Y-74800828D02*
X102445489Y-74872257D01*
X102445489Y-74872257D02*
X102374061Y-74943685D01*
X102374061Y-74943685D02*
X102302632Y-75086542D01*
X102302632Y-75086542D02*
X102231203Y-75372257D01*
X102231203Y-75372257D02*
X102231203Y-75729400D01*
X102231203Y-75729400D02*
X102302632Y-76015114D01*
X102302632Y-76015114D02*
X102374061Y-76157971D01*
X102374061Y-76157971D02*
X102445489Y-76229400D01*
X102445489Y-76229400D02*
X102588346Y-76300828D01*
X102588346Y-76300828D02*
X102731203Y-76300828D01*
X102731203Y-76300828D02*
X102874061Y-76229400D01*
X102874061Y-76229400D02*
X102945489Y-76157971D01*
X102945489Y-76157971D02*
X103016918Y-76015114D01*
X103016918Y-76015114D02*
X103088346Y-75729400D01*
X103088346Y-75729400D02*
X103088346Y-75372257D01*
X103088346Y-75372257D02*
X103016918Y-75086542D01*
X103016918Y-75086542D02*
X102945489Y-74943685D01*
X102945489Y-74943685D02*
X102874061Y-74872257D01*
X102874061Y-74872257D02*
X102731203Y-74800828D01*
X101159775Y-74800828D02*
X101159775Y-75872257D01*
X101159775Y-75872257D02*
X101231204Y-76086542D01*
X101231204Y-76086542D02*
X101374061Y-76229400D01*
X101374061Y-76229400D02*
X101588347Y-76300828D01*
X101588347Y-76300828D02*
X101731204Y-76300828D01*
X100016918Y-74800828D02*
X100016918Y-75872257D01*
X100016918Y-75872257D02*
X100088347Y-76086542D01*
X100088347Y-76086542D02*
X100231204Y-76229400D01*
X100231204Y-76229400D02*
X100445490Y-76300828D01*
X100445490Y-76300828D02*
X100588347Y-76300828D01*
X99302633Y-76300828D02*
X99302633Y-74800828D01*
X97445490Y-75729400D02*
X96302633Y-75729400D01*
X94659775Y-74800828D02*
X94159775Y-76300828D01*
X94159775Y-76300828D02*
X93659775Y-74800828D01*
X92374061Y-76300828D02*
X93231204Y-76300828D01*
X92802633Y-76300828D02*
X92802633Y-74800828D01*
X92802633Y-74800828D02*
X92945490Y-75015114D01*
X92945490Y-75015114D02*
X93088347Y-75157971D01*
X93088347Y-75157971D02*
X93231204Y-75229400D01*
X91731205Y-76157971D02*
X91659776Y-76229400D01*
X91659776Y-76229400D02*
X91731205Y-76300828D01*
X91731205Y-76300828D02*
X91802633Y-76229400D01*
X91802633Y-76229400D02*
X91731205Y-76157971D01*
X91731205Y-76157971D02*
X91731205Y-76300828D01*
X90231204Y-76300828D02*
X91088347Y-76300828D01*
X90659776Y-76300828D02*
X90659776Y-74800828D01*
X90659776Y-74800828D02*
X90802633Y-75015114D01*
X90802633Y-75015114D02*
X90945490Y-75157971D01*
X90945490Y-75157971D02*
X91088347Y-75229400D01*
D10*
D11*
X81766917Y-71229400D02*
X81552632Y-71300828D01*
X81552632Y-71300828D02*
X81195489Y-71300828D01*
X81195489Y-71300828D02*
X81052632Y-71229400D01*
X81052632Y-71229400D02*
X80981203Y-71157971D01*
X80981203Y-71157971D02*
X80909774Y-71015114D01*
X80909774Y-71015114D02*
X80909774Y-70872257D01*
X80909774Y-70872257D02*
X80981203Y-70729400D01*
X80981203Y-70729400D02*
X81052632Y-70657971D01*
X81052632Y-70657971D02*
X81195489Y-70586542D01*
X81195489Y-70586542D02*
X81481203Y-70515114D01*
X81481203Y-70515114D02*
X81624060Y-70443685D01*
X81624060Y-70443685D02*
X81695489Y-70372257D01*
X81695489Y-70372257D02*
X81766917Y-70229400D01*
X81766917Y-70229400D02*
X81766917Y-70086542D01*
X81766917Y-70086542D02*
X81695489Y-69943685D01*
X81695489Y-69943685D02*
X81624060Y-69872257D01*
X81624060Y-69872257D02*
X81481203Y-69800828D01*
X81481203Y-69800828D02*
X81124060Y-69800828D01*
X81124060Y-69800828D02*
X80909774Y-69872257D01*
X79266918Y-71443685D02*
X79409775Y-71372257D01*
X79409775Y-71372257D02*
X79552632Y-71229400D01*
X79552632Y-71229400D02*
X79766918Y-71015114D01*
X79766918Y-71015114D02*
X79909775Y-70943685D01*
X79909775Y-70943685D02*
X80052632Y-70943685D01*
X79981203Y-71300828D02*
X80124061Y-71229400D01*
X80124061Y-71229400D02*
X80266918Y-71086542D01*
X80266918Y-71086542D02*
X80338346Y-70800828D01*
X80338346Y-70800828D02*
X80338346Y-70300828D01*
X80338346Y-70300828D02*
X80266918Y-70015114D01*
X80266918Y-70015114D02*
X80124061Y-69872257D01*
X80124061Y-69872257D02*
X79981203Y-69800828D01*
X79981203Y-69800828D02*
X79695489Y-69800828D01*
X79695489Y-69800828D02*
X79552632Y-69872257D01*
X79552632Y-69872257D02*
X79409775Y-70015114D01*
X79409775Y-70015114D02*
X79338346Y-70300828D01*
X79338346Y-70300828D02*
X79338346Y-70800828D01*
X79338346Y-70800828D02*
X79409775Y-71086542D01*
X79409775Y-71086542D02*
X79552632Y-71229400D01*
X79552632Y-71229400D02*
X79695489Y-71300828D01*
X79695489Y-71300828D02*
X79981203Y-71300828D01*
X77981203Y-71300828D02*
X78695489Y-71300828D01*
X78695489Y-71300828D02*
X78695489Y-69800828D01*
D12*
%TO.P,J6,1,Pin_1*%
%TO.N,AUDIO_OUT*%
X76000000Y-63000000D03*
%TD*%
%TO.P,J8,1,Pin_1*%
%TO.N,SQUELCH*%
X76000000Y-70500000D03*
%TD*%
%TO.P,J5,1,Pin_1*%
%TO.N,PTT*%
X76000000Y-59250000D03*
%TD*%
D13*
%TO.P,J10,6,Shield*%
%TO.N,unconnected-(J10-Shield-Pad6)*%
X110865000Y-73255000D03*
D14*
X107865000Y-72945000D03*
X107865000Y-68105000D03*
D13*
X110865000Y-67795000D03*
%TD*%
D12*
%TO.P,J7,1,Pin_1*%
%TO.N,AUDIO_IN*%
X76000000Y-66750000D03*
%TD*%
%TO.P,J9,1,Pin_1*%
%TO.N,GND*%
X76000000Y-74250000D03*
%TD*%
D15*
%TO.N,GND*%
X87750000Y-66750000D03*
X98850000Y-70000000D03*
X97250000Y-70000000D03*
X85250000Y-68250000D03*
X105674265Y-69325735D03*
X103250000Y-73750000D03*
%TO.N,VCC*%
X101250000Y-71350000D03*
X105886765Y-64863235D03*
%TO.N,+3V3*%
X102500000Y-60250000D03*
X100500000Y-67500000D03*
%TO.N,Net-(D1-A)*%
X98250000Y-60250000D03*
X85500000Y-72500000D03*
%TO.N,Net-(U1-USBDM)*%
X100500000Y-70000000D03*
X101750000Y-62750000D03*
%TO.N,Net-(U1-XO)*%
X88400000Y-63750000D03*
X94250000Y-60250000D03*
%TO.N,NET-(U1-BGREF)*%
X88750000Y-74250000D03*
X93625000Y-69250000D03*
%TO.N,Net-(U1-LOL)*%
X95850000Y-68750000D03*
X93500000Y-70250000D03*
%TD*%
D16*
%TO.N,+3V3*%
X102500000Y-60250000D02*
X100000000Y-62750000D01*
X100000000Y-62750000D02*
X100000000Y-67000000D01*
X100000000Y-67000000D02*
X100500000Y-67500000D01*
%TO.N,GND*%
X103250000Y-73750000D02*
X105500000Y-71500000D01*
X105500000Y-71500000D02*
X105500000Y-69500000D01*
X105500000Y-69500000D02*
X105674265Y-69325735D01*
X103250000Y-73750000D02*
X101000000Y-73750000D01*
X101000000Y-73750000D02*
X97250000Y-70000000D01*
X103250000Y-73750000D02*
X102600000Y-73750000D01*
X102600000Y-73750000D02*
X98850000Y-70000000D01*
%TO.N,VCC*%
X101250000Y-71350000D02*
X101400000Y-71350000D01*
X101400000Y-71350000D02*
X104750000Y-68000000D01*
X104750000Y-68000000D02*
X104750000Y-66000000D01*
X104750000Y-66000000D02*
X105886765Y-64863235D01*
%TO.N,NET-(U1-BGREF)*%
X93625000Y-69250000D02*
X93000000Y-69250000D01*
X93000000Y-69250000D02*
X88750000Y-73500000D01*
X88750000Y-73500000D02*
X88750000Y-74250000D01*
%TO.N,Net-(U1-LOL)*%
X93500000Y-70250000D02*
X94350000Y-70250000D01*
X94350000Y-70250000D02*
X95850000Y-68750000D01*
%TO.N,Net-(D1-A)*%
X85500000Y-72500000D02*
X85500000Y-69901471D01*
X85500000Y-69901471D02*
X95151471Y-60250000D01*
X95151471Y-60250000D02*
X98250000Y-60250000D01*
%TO.N,GND*%
X86750000Y-66750000D02*
X85250000Y-68250000D01*
X87750000Y-66750000D02*
X86750000Y-66750000D01*
%TO.N,Net-(U1-USBDM)*%
X100500000Y-70000000D02*
X101750000Y-68750000D01*
X101750000Y-68750000D02*
X101750000Y-62750000D01*
%TO.N,Net-(U1-XO)*%
X94250000Y-60250000D02*
X90750000Y-63750000D01*
X90750000Y-63750000D02*
X88400000Y-63750000D01*
%TD*%
M02*
