%TF.GenerationSoftware,KiCad,Pcbnew,8.0.4+dfsg-1*%
%TF.CreationDate,2024-12-18T14:37:18+00:00*%
%TF.ProjectId,single-sided-radio-interface,73696e67-6c65-42d7-9369-6465642d7261,rev?*%
%TF.SameCoordinates,Original*%
%TF.FileFunction,Soldermask,Top*%
%TF.FilePolarity,Negative*%
%FSLAX46Y46*%
G04 Gerber Fmt 4.6, Leading zero omitted, Abs format (unit mm)*
G04 Created by KiCad (PCBNEW 8.0.4+dfsg-1) date 2024-12-18 14:37:18*
%MOMM*%
%LPD*%
G01*
G04 APERTURE LIST*
G04 Aperture macros list*
%AMRoundRect*
0 Rectangle with rounded corners*
0 $1 Rounding radius*
0 $2 $3 $4 $5 $6 $7 $8 $9 X,Y pos of 4 corners*
0 Add a 4 corners polygon primitive as box body*
4,1,4,$2,$3,$4,$5,$6,$7,$8,$9,$2,$3,0*
0 Add four circle primitives for the rounded corners*
1,1,$1+$1,$2,$3*
1,1,$1+$1,$4,$5*
1,1,$1+$1,$6,$7*
1,1,$1+$1,$8,$9*
0 Add four rect primitives between the rounded corners*
20,1,$1+$1,$2,$3,$4,$5,0*
20,1,$1+$1,$4,$5,$6,$7,0*
20,1,$1+$1,$6,$7,$8,$9,0*
20,1,$1+$1,$8,$9,$2,$3,0*%
G04 Aperture macros list end*
%ADD10R,1.400000X1.200000*%
%ADD11RoundRect,0.225000X0.225000X0.250000X-0.225000X0.250000X-0.225000X-0.250000X0.225000X-0.250000X0*%
%ADD12RoundRect,0.150000X0.587500X0.150000X-0.587500X0.150000X-0.587500X-0.150000X0.587500X-0.150000X0*%
%ADD13RoundRect,0.218750X-0.218750X-0.381250X0.218750X-0.381250X0.218750X0.381250X-0.218750X0.381250X0*%
%ADD14R,1.700000X1.700000*%
%ADD15RoundRect,0.225000X-0.225000X-0.250000X0.225000X-0.250000X0.225000X0.250000X-0.225000X0.250000X0*%
%ADD16RoundRect,0.200000X-0.200000X-0.275000X0.200000X-0.275000X0.200000X0.275000X-0.200000X0.275000X0*%
%ADD17RoundRect,0.075000X-0.075000X0.662500X-0.075000X-0.662500X0.075000X-0.662500X0.075000X0.662500X0*%
%ADD18RoundRect,0.075000X-0.662500X0.075000X-0.662500X-0.075000X0.662500X-0.075000X0.662500X0.075000X0*%
%ADD19RoundRect,0.225000X-0.225000X-0.375000X0.225000X-0.375000X0.225000X0.375000X-0.225000X0.375000X0*%
%ADD20R,1.650000X0.400000*%
%ADD21R,0.700000X1.825000*%
%ADD22R,1.500000X2.000000*%
%ADD23R,2.000000X1.350000*%
%ADD24O,1.700000X1.350000*%
%ADD25O,1.500000X1.100000*%
%ADD26R,2.500000X1.430000*%
%ADD27RoundRect,0.200000X0.200000X0.275000X-0.200000X0.275000X-0.200000X-0.275000X0.200000X-0.275000X0*%
G04 APERTURE END LIST*
D10*
%TO.C,Y1*%
X84650000Y-65350000D03*
X86850000Y-65350000D03*
X86850000Y-63650000D03*
X84650000Y-63650000D03*
%TD*%
D11*
%TO.C,C5*%
X110525000Y-61000000D03*
X108975000Y-61000000D03*
%TD*%
D12*
%TO.C,Q1*%
X81687500Y-61700000D03*
X81687500Y-59800000D03*
X79812500Y-60750000D03*
%TD*%
D13*
%TO.C,L1*%
X102187500Y-72500000D03*
X104312500Y-72500000D03*
%TD*%
D14*
%TO.C,J6*%
X76000000Y-63000000D03*
%TD*%
D15*
%TO.C,C3*%
X105475000Y-63750000D03*
X107025000Y-63750000D03*
%TD*%
%TO.C,C9*%
X90475000Y-71750000D03*
X92025000Y-71750000D03*
%TD*%
D14*
%TO.C,J8*%
X76000000Y-70500000D03*
%TD*%
D16*
%TO.C,R1*%
X102425000Y-70750000D03*
X104075000Y-70750000D03*
%TD*%
D17*
%TO.C,U1*%
X98750000Y-58837500D03*
X98250000Y-58837500D03*
X97750000Y-58837500D03*
X97250000Y-58837500D03*
X96750000Y-58837500D03*
X96250000Y-58837500D03*
X95750000Y-58837500D03*
X95250000Y-58837500D03*
X94750000Y-58837500D03*
X94250000Y-58837500D03*
X93750000Y-58837500D03*
X93250000Y-58837500D03*
D18*
X91837500Y-60250000D03*
X91837500Y-60750000D03*
X91837500Y-61250000D03*
X91837500Y-61750000D03*
X91837500Y-62250000D03*
X91837500Y-62750000D03*
X91837500Y-63250000D03*
X91837500Y-63750000D03*
X91837500Y-64250000D03*
X91837500Y-64750000D03*
X91837500Y-65250000D03*
X91837500Y-65750000D03*
D17*
X93250000Y-67162500D03*
X93750000Y-67162500D03*
X94250000Y-67162500D03*
X94750000Y-67162500D03*
X95250000Y-67162500D03*
X95750000Y-67162500D03*
X96250000Y-67162500D03*
X96750000Y-67162500D03*
X97250000Y-67162500D03*
X97750000Y-67162500D03*
X98250000Y-67162500D03*
X98750000Y-67162500D03*
D18*
X100162500Y-65750000D03*
X100162500Y-65250000D03*
X100162500Y-64750000D03*
X100162500Y-64250000D03*
X100162500Y-63750000D03*
X100162500Y-63250000D03*
X100162500Y-62750000D03*
X100162500Y-62250000D03*
X100162500Y-61750000D03*
X100162500Y-61250000D03*
X100162500Y-60750000D03*
X100162500Y-60250000D03*
%TD*%
D19*
%TO.C,D1*%
X80350000Y-72500000D03*
X83650000Y-72500000D03*
%TD*%
D15*
%TO.C,C4*%
X105475000Y-61000000D03*
X107025000Y-61000000D03*
%TD*%
D14*
%TO.C,J5*%
X76000000Y-59250000D03*
%TD*%
D15*
%TO.C,C2*%
X84975000Y-61250000D03*
X86525000Y-61250000D03*
%TD*%
D11*
%TO.C,C6*%
X110525000Y-63750000D03*
X108975000Y-63750000D03*
%TD*%
D16*
%TO.C,R3*%
X102425000Y-67250000D03*
X104075000Y-67250000D03*
%TD*%
D11*
%TO.C,C1*%
X82275000Y-65250000D03*
X80725000Y-65250000D03*
%TD*%
D20*
%TO.C,J10*%
X107985000Y-71825000D03*
X107985000Y-71175000D03*
X107985000Y-70525000D03*
X107985000Y-69875000D03*
X107985000Y-69225000D03*
D21*
X109185000Y-73475000D03*
D22*
X107885000Y-73375000D03*
D23*
X109935000Y-73255000D03*
D24*
X110865000Y-73255000D03*
D25*
X107865000Y-72945000D03*
D26*
X111135000Y-71485000D03*
X111135000Y-69565000D03*
D25*
X107865000Y-68105000D03*
D24*
X110865000Y-67795000D03*
D23*
X109935000Y-67775000D03*
D22*
X107865000Y-67625000D03*
D21*
X109185000Y-67525000D03*
%TD*%
D14*
%TO.C,J7*%
X76000000Y-66750000D03*
%TD*%
D15*
%TO.C,C8*%
X90475000Y-69750000D03*
X92025000Y-69750000D03*
%TD*%
D27*
%TO.C,R2*%
X104075000Y-69250000D03*
X102425000Y-69250000D03*
%TD*%
D14*
%TO.C,J9*%
X76000000Y-74250000D03*
%TD*%
D15*
%TO.C,C7*%
X90475000Y-73750000D03*
X92025000Y-73750000D03*
%TD*%
M02*
